<svg id="Layer_1" data-name="Layer 1" xmlns="http://www.w3.org/2000/svg" xmlns:xlink="http://www.w3.org/1999/xlink" viewBox="0 0 640.14 120.01"><defs><style>.cls-1{fill:none;}.cls-2{fill:#fff;}.cls-3{clip-path:url(#clip-path);}</style><clipPath id="clip-path"><rect class="cls-1" width="120.01" height="120.01"/></clipPath></defs><path class="cls-2" d="M411,49.76V44h-1.7V42.09a1.61,1.61,0,0,0,1.8-1.67V38.77h2.14v3.32h2V44h-2v5.29c0,1.15.28,1.57,1,1.57a1.79,1.79,0,0,0,1.06-.34l1,1.72a4.28,4.28,0,0,1-2.31.66C412.11,52.94,411,51.79,411,49.76Z"/><path class="cls-2" d="M427.36,46.28v6.4h-2.25V46.81c0-1.8-1-2.88-2.6-2.88-1.36,0-2.27,1.27-2.27,3.14v5.61H418V37.54h2.24V43a3.51,3.51,0,0,1,2.82-1.1A4.1,4.1,0,0,1,427.36,46.28Z"/><path class="cls-2" d="M434.45,50.77A2.75,2.75,0,0,0,437.12,49l2.06.7a5,5,0,0,1-4.73,3.22c-2.92,0-5.06-2.42-5.06-5.62a5.15,5.15,0,0,1,5.06-5.48c2.9,0,5,2.33,5.06,5.48v.77h-7.9A2.91,2.91,0,0,0,434.45,50.77Zm-2.79-4.38h5.59a2.83,2.83,0,0,0-5.59,0Z"/><path class="cls-2" d="M456.69,46.28v6.4h-2.24V46.81c0-1.8-1-2.88-2.61-2.88-1.35,0-2.26,1.27-2.26,3.14v5.61h-2.25V37.54h2.25V43a3.49,3.49,0,0,1,2.81-1.1A4.1,4.1,0,0,1,456.69,46.28Z"/><path class="cls-2" d="M468.64,50.92v1.76h-1a2.05,2.05,0,0,1-1.89-1.14,3.21,3.21,0,0,1-2.75,1.4c-2.52,0-4.15-1.42-4.15-3.63,0-3.11,3.92-3.45,6.59-3.07v-.78c0-.55-.55-1.42-2.12-1.42a2.22,2.22,0,0,0-2.06,1.42l-2-.74a4,4,0,0,1,4.07-2.88c3.09,0,4.28,2.22,4.28,3.3v4.64C467.58,51,468,50.92,468.64,50.92Zm-3.24-2.81c-2.76-.36-4.39.06-4.39,1.2,0,2.5,4.39,1.78,4.39-.29Z"/><path class="cls-2" d="M475.88,41.92V44a3.28,3.28,0,0,0-.87-.11c-1.52,0-2.31,1-2.31,2.94v5.87h-2.24V42.09h1.86l.26,1.06a2.92,2.92,0,0,1,2.73-1.27A4.22,4.22,0,0,1,475.88,41.92Z"/><path class="cls-2" d="M487.4,37.5V52.79h-1.86l-.26-1.36A4.55,4.55,0,0,1,482,53c-3,0-5.13-2.39-5.13-5.65S479,41.73,482,41.73a3.77,3.77,0,0,1,3.2,1.57V37.5Zm-2.24,9.89c0-2.1-1.21-3.52-3-3.52s-3.09,1.46-3.09,3.52,1.29,3.51,3.09,3.51S485.16,49.48,485.16,47.39Z"/><path class="cls-2" d="M505.09,42.09l-3.63,10.59h-1.92l-2.42-7.31-2.43,7.31h-1.93l-3.62-10.59h2.39L493.74,49l2.2-6.95h2.35l2.2,6.95,2.2-6.95Z"/><path class="cls-2" d="M516.12,50.92v1.76h-1a2,2,0,0,1-1.88-1.14,3.23,3.23,0,0,1-2.75,1.4c-2.52,0-4.16-1.42-4.16-3.63,0-3.11,3.92-3.45,6.59-3.07v-.78c0-.55-.55-1.42-2.12-1.42a2.2,2.2,0,0,0-2.05,1.42l-2-.74a4,4,0,0,1,4.06-2.88c3.1,0,4.28,2.22,4.28,3.3v4.64C515.06,51,515.47,50.92,516.12,50.92Zm-3.24-2.81c-2.75-.36-4.38.06-4.38,1.2,0,2.5,4.38,1.78,4.38-.29Z"/><path class="cls-2" d="M523.37,41.92V44a3.34,3.34,0,0,0-.87-.11c-1.53,0-2.31,1-2.31,2.94v5.87h-2.25V42.09h1.87l.25,1.06a2.93,2.93,0,0,1,2.73-1.27A4.26,4.26,0,0,1,523.37,41.92Z"/><path class="cls-2" d="M529.38,50.77A2.75,2.75,0,0,0,532.05,49l2.05.7a5,5,0,0,1-4.72,3.22c-2.92,0-5.06-2.42-5.06-5.62a5.15,5.15,0,0,1,5.06-5.48c2.9,0,5,2.33,5.06,5.48v.77h-7.9A2.91,2.91,0,0,0,529.38,50.77Zm-2.8-4.38h5.6a2.84,2.84,0,0,0-5.6,0Z"/><path class="cls-2" d="M546.51,50.77A2.75,2.75,0,0,0,549.18,49l2.06.7a5,5,0,0,1-4.73,3.22c-2.92,0-5.06-2.42-5.06-5.62a5.15,5.15,0,0,1,5.06-5.48c2.91,0,5,2.33,5.07,5.48v.77h-7.9A2.9,2.9,0,0,0,546.51,50.77Zm-2.79-4.38h5.59a2.83,2.83,0,0,0-5.59,0Z"/><path class="cls-2" d="M562.51,46.39v6.29h-2.25V47.24c0-2.27-.7-3.37-2.12-3.37s-2.31,1-2.31,2.94v5.87h-2.24V42.09h1.86l.26,1.06a3,3,0,0,1,2.73-1.31C560.94,41.84,562.51,43.59,562.51,46.39Z"/><path class="cls-2" d="M569.56,39.76a1.28,1.28,0,0,0-1.32,1.44v.89h2.59V44h-2.59v8.64H566V44h-1.78V42.09H566V41.2a3.56,3.56,0,0,1,5.29-3.15l-1,1.92A1.22,1.22,0,0,0,569.56,39.76Z"/><path class="cls-2" d="M571.78,47.36a5.32,5.32,0,1,1,10.63,0,5.32,5.32,0,1,1-10.63,0Zm8.39,0a3.08,3.08,0,1,0-6.14,0,3.08,3.08,0,1,0,6.14,0Z"/><path class="cls-2" d="M589.85,41.92V44a3.34,3.34,0,0,0-.87-.11c-1.53,0-2.31,1-2.31,2.94v5.87h-2.24V42.09h1.86l.25,1.06a3,3,0,0,1,2.74-1.27A4.22,4.22,0,0,1,589.85,41.92Z"/><path class="cls-2" d="M596.12,52.87a5.23,5.23,0,0,1-5.32-5.51,5.22,5.22,0,0,1,5.32-5.5A5,5,0,0,1,601,45.14l-2.14.74a2.77,2.77,0,0,0-2.75-1.78,3,3,0,0,0-3.07,3.26,3,3,0,0,0,3.07,3.27,2.74,2.74,0,0,0,2.75-1.76l2.14.72A5,5,0,0,1,596.12,52.87Z"/><path class="cls-2" d="M607.85,50.77A2.75,2.75,0,0,0,610.52,49l2.05.7a5,5,0,0,1-4.72,3.22c-2.92,0-5.06-2.42-5.06-5.62a5.15,5.15,0,0,1,5.06-5.48c2.9,0,5,2.33,5.06,5.48v.77H605A2.91,2.91,0,0,0,607.85,50.77Zm-2.8-4.38h5.6a2.84,2.84,0,0,0-5.6,0Z"/><path class="cls-2" d="M625.22,37.5V52.79h-1.87l-.25-1.36A4.57,4.57,0,0,1,619.77,53c-3,0-5.12-2.39-5.12-5.65s2.16-5.66,5.12-5.66A3.74,3.74,0,0,1,623,43.3V37.5ZM623,47.39c0-2.1-1.2-3.52-3-3.52s-3.1,1.46-3.1,3.52A3.2,3.2,0,0,0,620,50.9C621.77,50.9,623,49.48,623,47.39Z"/><path class="cls-2" d="M420.26,68.57c0,3.24-2.14,5.65-5.12,5.65a4.11,4.11,0,0,1-3.2-1.63v5.76h-2.25V63.27h1.87l.25,1.36A4.57,4.57,0,0,1,415.14,63C418.1,63,420.26,65.41,420.26,68.57Zm-2.24,0a3.16,3.16,0,0,0-3.09-3.41c-1.78,0-3,1.42-3,3.41s1.19,3.51,3,3.51S418,70.6,418,68.57Z"/><path class="cls-2" d="M431.74,72.1v1.76h-1a2,2,0,0,1-1.88-1.14,3.22,3.22,0,0,1-2.75,1.39c-2.52,0-4.15-1.41-4.15-3.62,0-3.11,3.91-3.45,6.58-3.07v-.78c0-.55-.55-1.42-2.12-1.42a2.2,2.2,0,0,0-2.05,1.42l-2-.74A4,4,0,0,1,426.41,63c3.09,0,4.27,2.22,4.27,3.3V71C430.68,72.15,431.09,72.1,431.74,72.1Zm-3.24-2.81c-2.75-.36-4.38.06-4.38,1.2,0,2.5,4.38,1.78,4.38-.29Z"/><path class="cls-2" d="M442.08,63.27l-4.3,12.62a3.38,3.38,0,0,1-4.3,2.29A2.56,2.56,0,0,1,432,76.89l1.35-1.17a1.17,1.17,0,0,0,1,.79c.8,0,1.21-.47,1.74-2l.23-.66h-.47l-3.6-10.59h2.37l2.48,7.46,2.59-7.46Z"/><path class="cls-2" d="M458.36,67.57v6.29h-2.24V68.42c0-2.37-.57-3.37-1.91-3.37s-2.09.91-2.09,2.94v5.87h-2.25V68.42c0-2.37-.57-3.37-1.9-3.37s-2.1.91-2.1,2.94v5.87h-2.25V63.27h1.87l.25,1.06a3.17,3.17,0,0,1,5.49.64A3.61,3.61,0,0,1,454.62,63C457,63,458.36,64.65,458.36,67.57Z"/><path class="cls-2" d="M465.38,72A2.74,2.74,0,0,0,468,70.2l2.06.7a5,5,0,0,1-4.72,3.21c-2.93,0-5.07-2.41-5.07-5.61A5.15,5.15,0,0,1,465.38,63c2.9,0,5,2.33,5.06,5.48v.77h-7.9A2.9,2.9,0,0,0,465.38,72Zm-2.8-4.38h5.59a2.83,2.83,0,0,0-5.59,0Z"/><path class="cls-2" d="M481.37,67.57v6.29h-2.25V68.42c0-2.27-.7-3.37-2.12-3.37s-2.31,1-2.31,2.94v5.87h-2.24V63.27h1.86l.26,1.06A3,3,0,0,1,477.3,63C479.8,63,481.37,64.78,481.37,67.57Z"/><path class="cls-2" d="M484.37,70.94V65.22h-1.69V63.27a1.61,1.61,0,0,0,1.8-1.67V60h2.14v3.32h2v1.95h-2v5.29c0,1.15.27,1.57,1,1.57a1.74,1.74,0,0,0,1.05-.34l1,1.72a4.3,4.3,0,0,1-2.31.65C485.45,74.11,484.37,73,484.37,70.94Z"/><path class="cls-2" d="M497.57,73.14a3.8,3.8,0,0,1-1.25-3h2.18c-.15,1.19.7,2,2.12,2,1.25,0,2.05-.47,2.05-1.14,0-.85-.72-1-3.32-1.65-1.89-.47-2.67-1.47-2.67-3,0-2,1.52-3.2,3.88-3.2s3.51.95,4,3l-1.93.64a1.85,1.85,0,0,0-2-1.61c-1.1,0-1.78.47-1.78,1.21s.25,1,1.1,1.25c3.77,1,4.89,1.37,4.89,3.41,0,1.86-1.71,3.19-4.11,3.19A4.71,4.71,0,0,1,497.57,73.14Z"/><path class="cls-2" d="M516.44,63.27l-4.3,12.62a3.38,3.38,0,0,1-4.3,2.29,2.59,2.59,0,0,1-1.46-1.29l1.36-1.17a1.14,1.14,0,0,0,1,.79c.81,0,1.21-.47,1.74-2l.23-.66h-.47l-3.6-10.59H509l2.47,7.46,2.59-7.46Z"/><path class="cls-2" d="M519,73.14a3.86,3.86,0,0,1-1.25-3h2.18c-.14,1.19.7,2,2.12,2,1.25,0,2.06-.47,2.06-1.14,0-.85-.72-1-3.33-1.65-1.88-.47-2.67-1.47-2.67-3,0-2,1.53-3.2,3.88-3.2s3.51.95,4,3l-1.93.64a1.85,1.85,0,0,0-2-1.61c-1.1,0-1.78.47-1.78,1.21s.26,1,1.1,1.25c3.77,1,4.89,1.37,4.89,3.41,0,1.86-1.71,3.19-4.1,3.19A4.74,4.74,0,0,1,519,73.14Z"/><path class="cls-2" d="M529,70.94V65.22h-1.7V63.27a1.61,1.61,0,0,0,1.81-1.67V60h2.13v3.32h2v1.95h-2v5.29c0,1.15.28,1.57,1,1.57a1.79,1.79,0,0,0,1.06-.34l1,1.72a4.26,4.26,0,0,1-2.3.65C530.08,74.11,529,73,529,70.94Z"/><path class="cls-2" d="M540.06,72a2.74,2.74,0,0,0,2.66-1.75l2.06.7a5,5,0,0,1-4.72,3.21c-2.93,0-5.07-2.41-5.07-5.61A5.15,5.15,0,0,1,540.06,63c2.9,0,5,2.33,5.06,5.48v.77h-7.9A2.9,2.9,0,0,0,540.06,72Zm-2.8-4.38h5.59a2.83,2.83,0,0,0-5.59,0Z"/><path class="cls-2" d="M561.87,67.57v6.29h-2.24V68.42c0-2.37-.58-3.37-1.91-3.37s-2.1.91-2.1,2.94v5.87h-2.24V68.42c0-2.37-.57-3.37-1.91-3.37s-2.1.91-2.1,2.94v5.87h-2.24V63.27H549l.26,1.06a3.16,3.16,0,0,1,5.48.64A3.63,3.63,0,0,1,558.12,63C560.54,63,561.87,64.65,561.87,67.57Z"/><path class="cls-2" d="M161.14,49.86a12.47,12.47,0,0,1-12.86,12.86h-7.77V78.86h-7.78V37h15.55A12.48,12.48,0,0,1,161.14,49.86Zm-7.18,0a5.48,5.48,0,0,0-5.86-5.68h-7.59V55.54h7.59A5.48,5.48,0,0,0,154,49.86Z"/><path class="cls-2" d="M175.07,62.3V78.86h-7.65V37h7.65V55.24h18.66V37h7.65V78.86h-7.65V62.3Z"/><path class="cls-2" d="M207.72,57.93c0-12.32,8.73-21.64,20.93-21.64s20.93,9.32,20.93,21.64-8.73,21.65-20.93,21.65S207.72,70.25,207.72,57.93Zm34.09,0c0-8-5.39-13.87-13.16-13.87s-13.16,5.86-13.16,13.87,5.39,13.88,13.16,13.88S241.81,66,241.81,57.93Z"/><path class="cls-2" d="M295.26,37V78.86h-7.83L264.59,48.3V78.86h-7.78V37h9.09l21.59,29.13V37Z"/><path class="cls-2" d="M301.6,57.93c0-12.32,8.73-21.64,20.93-21.64s20.93,9.32,20.93,21.64-8.73,21.65-20.93,21.65S301.6,70.25,301.6,57.93Zm34.09,0c0-8-5.39-13.87-13.16-13.87s-13.15,5.86-13.15,13.87,5.38,13.88,13.15,13.88S335.69,66,335.69,57.93Z"/><path class="cls-2" d="M389.15,37V78.86h-7.84L358.47,48.3V78.86h-7.78V37h9.09l21.59,29.13V37Z"/><g class="cls-3"><polygon class="cls-2" points="39.13 54.38 39.14 54.4 39.71 54.29 39.71 54.27 39.69 54.27 39.68 54.25 39.11 54.37 39.11 54.39 39.13 54.38"/><g class="cls-3"><path class="cls-2" d="M107.08,57.09c-1.1,4.08-3.26,7.13-6.07,8.6a9,9,0,0,1-7,.48L94.55,64l0,.07,4.13-15.3,0,.06.52-1.94v0c1.16-3.71,3.22-6.49,5.86-7.86a9,9,0,0,1,7-.48l-3.18,11.84s0,0,0,.08Zm-18-7.85-.53,1.93v0l-6.49,24c-1.1,4.08-3.25,7.13-6.06,8.6A9,9,0,0,1,69,84.3L80.68,41c1.1-4.08,3.26-7.14,6.08-8.6a9,9,0,0,1,7.06-.47L89.13,49.25Zm-43.64,48L62.41,34.55c1.1-4.09,3.26-7.14,6.08-8.61a9,9,0,0,1,7-.49l-.62,2.23L75,27.6,58.63,88.16c-1.1,4.09-3.26,7.15-6.08,8.62a9.09,9.09,0,0,1-7.06.48M27.23,90.64l.58-2.17,0,0L31.9,73.26v0l.53-2v0l6.48-24c1.1-4.09,3.26-7.14,6.08-8.61a9,9,0,0,1,6.85-.55v0l.22.07L40.36,81.54c-1.1,4.09-3.26,7.15-6.08,8.61a9,9,0,0,1-7,.49M9,84l.19-.72L14,65.44c1.11-4.08,3.27-7.14,6.08-8.61a9.07,9.07,0,0,1,7.07-.48l-5,18.55C21,79,18.83,82.05,16,83.51A9,9,0,0,1,9,84m14.13-8.83L27.72,58l3.65,13.34L26.59,89,22.94,75.66c0-.16.09-.33.14-.49M52.16,41.73V68.6L45.38,93.73V66.86ZM75.66,29V55.65L68.88,80.78V54.11Zm18.78,4.53L98.1,46.84c0,.15-.09.32-.14.48L93.32,64.51,89.67,51.2Z"/></g></g></svg>