<svg id="Layer_1" data-name="Layer 1" xmlns="http://www.w3.org/2000/svg" xmlns:xlink="http://www.w3.org/1999/xlink" viewBox="0 0 408.69 388.63"><defs><style>.cls-1{fill:none;}.cls-2{fill:#fff;}.cls-3{clip-path:url(#clip-path);}</style><clipPath id="clip-path"><rect class="cls-1" x="-0.23" y="-72.49" width="409.12" height="409.12"/></clipPath></defs><path class="cls-2" d="M67.9,321.7c0,10.14-7.44,17.58-17.58,17.58H39.7v22.07H29.07V304.13H50.32C60.46,304.13,67.9,311.57,67.9,321.7Zm-9.81,0c0-4.66-3.27-7.76-8-7.76H39.7v15.53H50.08C54.82,329.47,58.09,326.36,58.09,321.7Z"/><path class="cls-2" d="M86.94,338.7v22.65H76.48V304.13H86.94v24.93h25.51V304.13h10.46v57.22H112.45V338.7Z"/><path class="cls-2" d="M131.58,332.74c0-16.84,11.93-29.59,28.61-29.59s28.61,12.75,28.61,29.59-11.94,29.59-28.61,29.59S131.58,349.57,131.58,332.74Zm46.59,0c0-11-7.36-19-18-19s-18,8-18,19,7.36,19,18,19S178.17,343.69,178.17,332.74Z"/><path class="cls-2" d="M251.25,304.13v57.22H240.54l-31.23-41.77v41.77H198.69V304.13h12.42l29.51,39.8v-39.8Z"/><path class="cls-2" d="M259.91,332.74c0-16.84,11.94-29.59,28.61-29.59s28.61,12.75,28.61,29.59-11.93,29.59-28.61,29.59S259.91,349.57,259.91,332.74Zm46.6,0c0-11-7.36-19-18-19s-18,8-18,19,7.36,19,18,19S306.51,343.69,306.51,332.74Z"/><path class="cls-2" d="M379.58,304.13v57.22h-10.7l-31.23-41.77v41.77H327V304.13h12.43L369,343.93v-39.8Z"/><g class="cls-3"><polygon class="cls-2" points="133.18 112.9 133.19 112.97 135.15 112.58 135.13 112.51 135.06 112.52 135.04 112.46 133.09 112.85 133.1 112.92 133.18 112.9"/><g class="cls-3"><path class="cls-2" d="M364.8,122.12C361,136,353.69,146.44,344.11,151.43c-7.24,3.77-15.52,4.33-24,1.65l2-7.4-.17.24L336,93.75l.07.22,1.79-6.63,0-.13c3.93-12.65,11-22.11,20-26.8,7.23-3.76,15.52-4.32,24-1.64L371,99.15a1.26,1.26,0,0,0-.05.28ZM303.62,95.37,301.81,102l0,.1L279.73,184c-3.75,13.91-11.1,24.32-20.68,29.31-7.27,3.78-15.59,4.34-24.11,1.61L274.81,67.14c3.76-13.91,11.11-24.33,20.71-29.31,7.27-3.78,15.57-4.33,24.08-1.61l-16,59.19ZM154.83,259.05,212.52,45.29c3.76-13.93,11.12-24.36,20.72-29.36,7.24-3.76,15.52-4.33,24-1.67l-2.09,7.61.21-.29L199.64,228.05c-3.76,13.94-11.12,24.36-20.73,29.36-7.25,3.78-15.56,4.34-24.08,1.64M92.59,236.49l2-7.4-.06.1,14-51.94,0,.08,1.8-6.65,0-.08,22.08-81.84c3.76-13.93,11.12-24.36,20.73-29.36,7.05-3.68,15.1-4.3,23.35-1.86l0,0,.74.26L137.36,205.48c-3.76,13.93-11.12,24.36-20.72,29.35-7.26,3.78-15.55,4.35-24,1.66M30.3,213.86l.62-2.44L47.34,150.6c3.76-13.93,11.12-24.36,20.72-29.36,7.27-3.78,15.58-4.35,24.09-1.64L75.08,182.85C71.32,196.78,64,207.21,54.36,212.21,47.1,216,38.8,216.55,30.3,213.86m48.14-30.11,15.83-58.64,12.45,45.5L90.43,231,78,185.42c.16-.55.32-1.11.47-1.67m99.15-114v91.59L154.46,247V155.45ZM257.7,26.3v90.9l-23.11,85.67V112Zm64,15.43L334.2,87.17c-.16.54-.32,1.09-.47,1.64l-15.82,58.63L305.45,102Z"/></g></g></svg>