<svg id="Layer_1" data-name="Layer 1" xmlns="http://www.w3.org/2000/svg" xmlns:xlink="http://www.w3.org/1999/xlink" viewBox="0 0 1011.26 120.01"><defs><style>.cls-1{fill:none;}.cls-2{clip-path:url(#clip-path);}.cls-3{fill:#8f8f8f;}.cls-4{fill:#4d4d4d;}.cls-5{fill:#6ccef5;}.cls-6{fill:#00efb6;}.cls-7{fill:#ffa7ff;}.cls-8{clip-path:url(#clip-path-3);}.cls-9{fill:url(#linear-gradient);}.cls-10{clip-path:url(#clip-path-4);}.cls-11{fill:url(#linear-gradient-2);}.cls-12{clip-path:url(#clip-path-5);}.cls-13{fill:url(#linear-gradient-3);}.cls-14{clip-path:url(#clip-path-6);}.cls-15{fill:url(#linear-gradient-4);}.cls-16{clip-path:url(#clip-path-7);}.cls-17{fill:url(#linear-gradient-5);}</style><clipPath id="clip-path"><rect class="cls-1" width="120.01" height="120.01"/></clipPath><clipPath id="clip-path-3"><path class="cls-1" d="M61.66,33.27,44.71,96.06h0c6.35,2.3,12.07-1.42,14.17-9.23L75.83,24a10.8,10.8,0,0,0-3.66-.67c-4.8,0-8.82,3.63-10.51,9.9"/></clipPath><linearGradient id="linear-gradient" x1="97.21" y1="-575.76" x2="97.33" y2="-575.76" gradientTransform="matrix(0, 776.89, 776.89, 0, 447361.44, -75507.12)" gradientUnits="userSpaceOnUse"><stop offset="0" stop-color="#ffa7ff"/><stop offset="0.5" stop-color="#6ccef5"/><stop offset="1" stop-color="#00efb6"/></linearGradient><clipPath id="clip-path-4"><path class="cls-1" d="M79.82,39.64,68.07,83.18h0c6.34,2.3,12-1.42,14.15-9.22L94,30.43a10.92,10.92,0,0,0-3.67-.68c-4.8,0-8.81,3.63-10.5,9.89"/></clipPath><linearGradient id="linear-gradient-2" x1="97.21" y1="-575.83" x2="97.33" y2="-575.83" gradientTransform="matrix(0, 776.89, 776.89, 0, 447437.62, -75530.12)" xlink:href="#linear-gradient"/><clipPath id="clip-path-5"><path class="cls-1" d="M38.3,46,26.55,89.48h0c6.35,2.3,12.07-1.42,14.17-9.23L52.47,36.71h0A10.8,10.8,0,0,0,48.81,36C44,36,40,39.68,38.3,46"/></clipPath><linearGradient id="linear-gradient-3" x1="97.21" y1="-575.69" x2="97.33" y2="-575.69" gradientTransform="matrix(0, 776.89, 776.89, 0, 447286.71, -75484.34)" xlink:href="#linear-gradient"/><clipPath id="clip-path-6"><path class="cls-1" d="M13.49,64l-5.1,18.9c6.35,2.3,12.07-1.42,14.17-9.23l5.1-18.91A10.79,10.79,0,0,0,24,54.07c-4.81,0-8.83,3.64-10.52,9.91"/></clipPath><linearGradient id="linear-gradient-4" x1="97.21" y1="-575.59" x2="97.33" y2="-575.59" gradientTransform="matrix(0, 776.89, 776.89, 0, 447190.44, -75458.75)" xlink:href="#linear-gradient"/><clipPath id="clip-path-7"><path class="cls-1" d="M98,46.23l-5.1,18.92h0c6.34,2.3,12-1.42,14.15-9.22L112.15,37h0a10.75,10.75,0,0,0-3.65-.67c-4.8,0-8.81,3.63-10.5,9.89"/></clipPath><linearGradient id="linear-gradient-5" x1="97.21" y1="-575.93" x2="97.33" y2="-575.93" gradientTransform="matrix(0, 776.89, 776.89, 0, 447533.95, -75555.59)" xlink:href="#linear-gradient"/></defs><path d="M413.6,64.1V55.15H411V52.09a2.53,2.53,0,0,0,2.82-2.62V46.89h3.35v5.2h3.08v3.06h-3.08v8.29c0,1.79.43,2.45,1.59,2.45a2.7,2.7,0,0,0,1.66-.53l1.52,2.69a6.68,6.68,0,0,1-3.61,1C415.29,69.08,413.6,67.29,413.6,64.1Z"/><path d="M439.18,58.66v10h-3.52V59.49c0-2.82-1.52-4.51-4.08-4.51-2.12,0-3.55,2-3.55,4.91v8.79h-3.51V45H428v8.56a5.52,5.52,0,0,1,4.41-1.72C436.49,51.8,439.18,54.55,439.18,58.66Z"/><path d="M450.3,65.7a4.3,4.3,0,0,0,4.17-2.76l3.22,1.1a7.79,7.79,0,0,1-7.39,5c-4.58,0-7.93-3.78-7.93-8.79s3.35-8.59,7.93-8.59,7.86,3.64,7.92,8.59v1.19H445.85A4.55,4.55,0,0,0,450.3,65.7Zm-4.38-6.87h8.75a4.43,4.43,0,0,0-8.75,0Z"/><path d="M485.13,58.66v10h-3.51V59.49c0-2.82-1.53-4.51-4.08-4.51-2.13,0-3.55,2-3.55,4.91v8.79h-3.52V45H474v8.56a5.5,5.5,0,0,1,4.41-1.72C482.44,51.8,485.13,54.55,485.13,58.66Z"/><path d="M503.84,65.93v2.75h-1.62a3.2,3.2,0,0,1-3-1.79A5,5,0,0,1,495,69.08c-3.94,0-6.5-2.22-6.5-5.67,0-4.88,6.14-5.41,10.32-4.81V57.37c0-.86-.86-2.22-3.32-2.22a3.47,3.47,0,0,0-3.22,2.22l-3.11-1.16a6.31,6.31,0,0,1,6.37-4.51c4.84,0,6.7,3.48,6.7,5.17v7.27C502.19,66,502.82,65.93,503.84,65.93Zm-5.07-4.42c-4.31-.56-6.87.1-6.87,1.9,0,3.91,6.87,2.78,6.87-.47Z"/><path d="M515.19,51.83v3.22a5.55,5.55,0,0,0-1.36-.17c-2.38,0-3.61,1.56-3.61,4.61v9.19H506.7V52.09h2.92l.4,1.66c.6-.86,1.62-2,4.28-2A6.56,6.56,0,0,1,515.19,51.83Z"/><path d="M533.24,44.9V68.85h-2.92l-.4-2.13a7.13,7.13,0,0,1-5.2,2.52c-4.65,0-8-3.74-8-8.85s3.38-8.86,8-8.86a5.9,5.9,0,0,1,5,2.46V44.9Zm-3.51,15.49c0-3.29-1.9-5.51-4.68-5.51s-4.85,2.29-4.85,5.51,2,5.5,4.85,5.5S529.73,63.67,529.73,60.39Z"/><path d="M560.94,52.09l-5.67,16.59h-3l-3.78-11.44-3.81,11.44h-3L536,52.09h3.74L543.16,63l3.45-10.88h3.69L553.75,63l3.45-10.88Z"/><path d="M578.23,65.93v2.75h-1.62a3.19,3.19,0,0,1-3-1.79,5,5,0,0,1-4.32,2.19c-3.94,0-6.5-2.22-6.5-5.67,0-4.88,6.14-5.41,10.32-4.81V57.37c0-.86-.86-2.22-3.32-2.22a3.46,3.46,0,0,0-3.22,2.22l-3.11-1.16a6.3,6.3,0,0,1,6.36-4.51c4.85,0,6.71,3.48,6.71,5.17v7.27C576.58,66,577.21,65.93,578.23,65.93Zm-5.07-4.42c-4.31-.56-6.87.1-6.87,1.9,0,3.91,6.87,2.78,6.87-.47Z"/><path d="M589.58,51.83v3.22a5.62,5.62,0,0,0-1.36-.17c-2.39,0-3.61,1.56-3.61,4.61v9.19h-3.52V52.09H584l.4,1.66c.59-.86,1.62-2,4.28-2A6.56,6.56,0,0,1,589.58,51.83Z"/><path d="M599,65.7a4.32,4.32,0,0,0,4.18-2.76L606.4,64a7.78,7.78,0,0,1-7.39,5c-4.58,0-7.93-3.78-7.93-8.79s3.35-8.59,7.93-8.59,7.86,3.64,7.92,8.59v1.19H594.56A4.56,4.56,0,0,0,599,65.7Zm-4.38-6.87h8.75a4.43,4.43,0,0,0-8.75,0Z"/><path d="M625.85,65.7A4.32,4.32,0,0,0,630,62.94l3.21,1.1a7.78,7.78,0,0,1-7.39,5c-4.58,0-7.93-3.78-7.93-8.79s3.35-8.59,7.93-8.59,7.86,3.64,7.93,8.59v1.19H621.4A4.57,4.57,0,0,0,625.85,65.7Zm-4.38-6.87h8.76a4.43,4.43,0,0,0-8.76,0Z"/><path d="M650.9,58.83v9.85h-3.52V60.16c0-3.55-1.09-5.28-3.32-5.28-2.39,0-3.61,1.56-3.61,4.61v9.19h-3.52V52.09h2.92l.4,1.66a4.66,4.66,0,0,1,4.28-2C648.44,51.7,650.9,54.45,650.9,58.83Z"/><path d="M662,48.45a2,2,0,0,0-2.06,2.25v1.39h4.05v3.06h-4.05V68.68h-3.52V55.15h-2.78V52.09h2.78V50.7a5.59,5.59,0,0,1,8.3-4.94l-1.53,3A1.87,1.87,0,0,0,662,48.45Z"/><path d="M665.43,60.35c0-5,3.45-8.62,8.33-8.62s8.33,3.65,8.33,8.62S678.64,69,673.76,69,665.43,65.33,665.43,60.35Zm13.14,0c0-3.05-1.89-5.1-4.81-5.1s-4.81,2-4.81,5.1,1.89,5.11,4.81,5.11S678.57,63.41,678.57,60.35Z"/><path d="M693.73,51.83v3.22a5.62,5.62,0,0,0-1.36-.17c-2.39,0-3.61,1.56-3.61,4.61v9.19h-3.52V52.09h2.92l.4,1.66c.59-.86,1.62-2,4.28-2A6.56,6.56,0,0,1,693.73,51.83Z"/><path d="M703.55,69c-4.87,0-8.32-3.65-8.32-8.63s3.45-8.62,8.32-8.62a7.81,7.81,0,0,1,7.67,5.14L707.87,58a4.34,4.34,0,0,0-4.32-2.78c-2.92,0-4.81,2-4.81,5.1s1.89,5.11,4.81,5.11a4.28,4.28,0,0,0,4.32-2.75l3.35,1.13A7.79,7.79,0,0,1,703.55,69Z"/><path d="M721.94,65.7a4.3,4.3,0,0,0,4.17-2.76l3.22,1.1a7.78,7.78,0,0,1-7.39,5c-4.58,0-7.93-3.78-7.93-8.79s3.35-8.59,7.93-8.59,7.86,3.64,7.92,8.59v1.19H717.49A4.56,4.56,0,0,0,721.94,65.7Zm-4.38-6.87h8.75a4.43,4.43,0,0,0-8.75,0Z"/><path d="M749.14,44.9V68.85h-2.92l-.4-2.13a7.13,7.13,0,0,1-5.21,2.52c-4.64,0-8-3.74-8-8.85s3.38-8.86,8-8.86a5.88,5.88,0,0,1,5,2.46V44.9Zm-3.52,15.49c0-3.29-1.89-5.51-4.67-5.51s-4.85,2.29-4.85,5.51,2,5.5,4.85,5.5S745.62,63.67,745.62,60.39Z"/><path d="M778.57,60.39c0,5.07-3.35,8.85-8,8.85a6.45,6.45,0,0,1-5-2.55v9H762V52.09h2.92l.39,2.13a7.16,7.16,0,0,1,5.21-2.52C775.19,51.7,778.57,55.44,778.57,60.39Zm-3.52,0c0-3-2-5.34-4.84-5.34s-4.68,2.22-4.68,5.34,1.86,5.5,4.68,5.5S775.05,63.57,775.05,60.39Z"/><path d="M796.55,65.93v2.75h-1.62A3.2,3.2,0,0,1,792,66.89a5,5,0,0,1-4.32,2.19c-3.94,0-6.5-2.22-6.5-5.67,0-4.88,6.14-5.41,10.32-4.81V57.37c0-.86-.86-2.22-3.32-2.22a3.47,3.47,0,0,0-3.22,2.22l-3.11-1.16a6.3,6.3,0,0,1,6.36-4.51c4.85,0,6.71,3.48,6.71,5.17v7.27C794.9,66,795.53,65.93,796.55,65.93Zm-5.07-4.42c-4.31-.56-6.87.1-6.87,1.9,0,3.91,6.87,2.78,6.87-.47Z"/><path d="M812.75,52.09,806,71.87a5.3,5.3,0,0,1-6.73,3.58,4,4,0,0,1-2.29-2l2.12-1.82a1.83,1.83,0,0,0,1.56,1.23c1.26,0,1.89-.73,2.72-3.12l.37-1H803l-5.64-16.59h3.71L805,63.77l4-11.68Z"/><path d="M838.26,58.83v9.85h-3.52V60.16c0-3.72-.89-5.28-3-5.28-2.26,0-3.29,1.43-3.29,4.61v9.19H825V60.16c0-3.72-.9-5.28-3-5.28-2.25,0-3.28,1.43-3.28,4.61v9.19h-3.52V52.09h2.92l.4,1.66a5,5,0,0,1,8.59,1,5.65,5.65,0,0,1,5.31-3C836.17,51.7,838.26,54.25,838.26,58.83Z"/><path d="M849.24,65.7a4.3,4.3,0,0,0,4.18-2.76l3.22,1.1a7.8,7.8,0,0,1-7.4,5c-4.57,0-7.92-3.78-7.92-8.79s3.35-8.59,7.92-8.59,7.87,3.64,7.93,8.59v1.19H844.8A4.55,4.55,0,0,0,849.24,65.7Zm-4.37-6.87h8.75a4.43,4.43,0,0,0-8.75,0Z"/><path d="M874.29,58.83v9.85h-3.51V60.16c0-3.55-1.1-5.28-3.32-5.28-2.39,0-3.61,1.56-3.61,4.61v9.19h-3.52V52.09h2.92l.4,1.66a4.63,4.63,0,0,1,4.28-2C871.84,51.7,874.29,54.45,874.29,58.83Z"/><path d="M879,64.1V55.15h-2.66V52.09a2.52,2.52,0,0,0,2.82-2.62V46.89h3.36v5.2h3.08v3.06h-3.08v8.29c0,1.79.43,2.45,1.59,2.45a2.72,2.72,0,0,0,1.66-.53l1.52,2.69a6.68,6.68,0,0,1-3.61,1C880.7,69.08,879,67.29,879,64.1Z"/><path d="M899.68,67.55a6,6,0,0,1-2-4.77h3.42c-.23,1.85,1.09,3.08,3.32,3.08,1.95,0,3.21-.73,3.21-1.79,0-1.33-1.12-1.59-5.2-2.59-3-.73-4.18-2.29-4.18-4.77,0-3.06,2.38-5,6.07-5,3.51,0,5.5,1.49,6.3,4.71l-3,1c-.56-1.86-1.39-2.52-3.22-2.52s-2.78.73-2.78,1.89.39,1.59,1.72,2c5.91,1.62,7.66,2.15,7.66,5.34,0,2.92-2.68,5-6.43,5A7.42,7.42,0,0,1,899.68,67.55Z"/><path d="M929.24,52.09,922.5,71.87a5.3,5.3,0,0,1-6.73,3.58,4.07,4.07,0,0,1-2.29-2l2.13-1.82a1.82,1.82,0,0,0,1.55,1.23c1.26,0,1.89-.73,2.72-3.12l.37-1h-.73l-5.64-16.59h3.72l3.88,11.68,4-11.68Z"/><path d="M933.22,67.55a6,6,0,0,1-2-4.77h3.41c-.23,1.85,1.1,3.08,3.32,3.08,2,0,3.22-.73,3.22-1.79,0-1.33-1.13-1.59-5.21-2.59-3-.73-4.18-2.29-4.18-4.77,0-3.06,2.39-5,6.07-5,3.52,0,5.51,1.49,6.3,4.71l-3,1c-.57-1.86-1.4-2.52-3.22-2.52s-2.79.73-2.79,1.89.4,1.59,1.73,2c5.9,1.62,7.66,2.15,7.66,5.34,0,2.92-2.69,5-6.44,5A7.44,7.44,0,0,1,933.22,67.55Z"/><path d="M948.92,64.1V55.15h-2.66V52.09a2.52,2.52,0,0,0,2.82-2.62V46.89h3.35v5.2h3.09v3.06h-3.09v8.29c0,1.79.43,2.45,1.6,2.45a2.72,2.72,0,0,0,1.66-.53l1.52,2.69a6.71,6.71,0,0,1-3.61,1C950.61,69.08,948.92,67.29,948.92,64.1Z"/><path d="M966.24,65.7a4.32,4.32,0,0,0,4.18-2.76l3.21,1.1a7.78,7.78,0,0,1-7.39,5c-4.58,0-7.93-3.78-7.93-8.79s3.35-8.59,7.93-8.59,7.86,3.64,7.92,8.59v1.19H961.79A4.56,4.56,0,0,0,966.24,65.7Zm-4.38-6.87h8.75a4.43,4.43,0,0,0-8.75,0Z"/><path d="M1000.41,58.83v9.85h-3.52V60.16c0-3.72-.9-5.28-3-5.28-2.25,0-3.28,1.43-3.28,4.61v9.19h-3.51V60.16c0-3.72-.9-5.28-3-5.28-2.26,0-3.28,1.43-3.28,4.61v9.19h-3.52V52.09h2.92l.4,1.66a5,5,0,0,1,8.59,1,5.64,5.64,0,0,1,5.31-3C998.32,51.7,1000.41,54.25,1000.41,58.83Z"/><path d="M161.14,49.86a12.47,12.47,0,0,1-12.86,12.86h-7.77V78.86h-7.78V37h15.55A12.48,12.48,0,0,1,161.14,49.86Zm-7.18,0a5.48,5.48,0,0,0-5.86-5.68h-7.59V55.54h7.59A5.48,5.48,0,0,0,154,49.86Z"/><path d="M175.07,62.3V78.86h-7.65V37h7.65V55.24h18.66V37h7.65V78.86h-7.65V62.3Z"/><path d="M207.72,57.93c0-12.32,8.73-21.64,20.93-21.64s20.93,9.32,20.93,21.64-8.73,21.65-20.93,21.65S207.72,70.25,207.72,57.93Zm34.09,0c0-8-5.39-13.87-13.16-13.87s-13.16,5.86-13.16,13.87,5.39,13.88,13.16,13.88S241.81,66,241.81,57.93Z"/><path d="M295.26,37V78.86h-7.83L264.59,48.3V78.86h-7.78V37h9.09l21.59,29.13V37Z"/><path d="M301.6,57.93c0-12.32,8.73-21.64,20.93-21.64s20.93,9.32,20.93,21.64-8.73,21.65-20.93,21.65S301.6,70.25,301.6,57.93Zm34.09,0c0-8-5.39-13.87-13.16-13.87s-13.15,5.86-13.15,13.87,5.38,13.88,13.15,13.88S335.69,66,335.69,57.93Z"/><path d="M389.15,37V78.86h-7.84L358.47,48.3V78.86h-7.78V37h9.09l21.59,29.13V37Z"/><g class="cls-2"><path class="cls-3" d="M39.3,53.08v0Z"/><polygon class="cls-4" points="52.47 85.61 44.71 96.06 44.72 47.17 52.47 36.71 52.47 85.61"/><polygon class="cls-4" points="34.31 79.03 26.55 89.48 19.91 65.2 27.66 54.74 34.31 79.03"/><path class="cls-3" d="M75.93,45.26v0Z"/><polygon class="cls-4" points="75.83 72.73 68.07 83.19 68.07 34.49 75.83 24.04 75.83 72.73"/><polygon class="cls-4" points="100.65 54.71 92.89 65.16 86.23 40.89 93.99 30.43 100.65 54.71"/><g class="cls-2"><path class="cls-5" d="M44.71,96.06h0L61.66,33.27c2.11-7.81,7.82-11.53,14.17-9.23L58.88,86.83c-2.1,7.81-7.82,11.53-14.17,9.23"/><path class="cls-6" d="M68.09,83.19h0L79.82,39.64c2.11-7.8,7.82-11.52,14.17-9.21h0L82.24,74c-2.11,7.8-7.81,11.52-14.15,9.22"/><path class="cls-7" d="M26.55,89.48h0L38.3,46c2.11-7.81,7.82-11.54,14.17-9.24L40.72,80.25c-2.1,7.81-7.82,11.53-14.17,9.23"/><path class="cls-7" d="M8.39,82.88h0L13.49,64c2.11-7.81,7.82-11.53,14.17-9.24l-5.1,18.91c-2.1,7.81-7.82,11.53-14.17,9.23"/><path class="cls-6" d="M92.89,65.16h0L98,46.23c2.11-7.8,7.81-11.52,14.15-9.22h0L107,55.94c-2.1,7.8-7.81,11.52-14.15,9.22"/></g><g class="cls-8"><rect class="cls-9" x="20.41" y="38.07" width="79.73" height="45.59" transform="translate(-11.49 107.64) rotate(-78.38)"/></g><g class="cls-10"><rect class="cls-11" x="51.13" y="39.31" width="59.81" height="36.61" transform="translate(8.27 125.38) rotate(-78.38)"/></g><g class="cls-12"><rect class="cls-13" x="9.6" y="45.6" width="59.82" height="36.62" transform="translate(-31.05 89.74) rotate(-78.38)"/></g><g class="cls-14"><rect class="cls-15" x="0.85" y="57.05" width="34.35" height="25.15" transform="translate(-53.8 73.26) rotate(-78.38)"/></g><g class="cls-16"><rect class="cls-17" x="85.33" y="39.32" width="34.36" height="25.15" transform="translate(31.03 141.85) rotate(-78.38)"/></g></g></svg>