<svg id="Layer_1" data-name="Layer 1" xmlns="http://www.w3.org/2000/svg" xmlns:xlink="http://www.w3.org/1999/xlink" viewBox="0 0 1024 1024"><defs><style>.cls-1{fill:#8f8f8f;}.cls-2{fill:#4d4d4d;}.cls-3{fill:none;}.cls-4{fill:#6ccef5;}.cls-5{fill:#00efb6;}.cls-6{fill:#ffa7ff;}.cls-7{fill:url(#linear-gradient);}.cls-8{fill:url(#linear-gradient-2);}.cls-9{fill:url(#linear-gradient-3);}.cls-10{fill:url(#linear-gradient-4);}.cls-11{fill:url(#linear-gradient-5);}</style><linearGradient id="linear-gradient" x1="129.09" y1="432.83" x2="890.04" y2="589.35" gradientUnits="userSpaceOnUse"><stop offset="0" stop-color="#ffa7ff"/><stop offset="0.5" stop-color="#6ccef5"/><stop offset="1" stop-color="#00efb6"/></linearGradient><linearGradient id="linear-gradient-2" x1="141.74" y1="371.33" x2="902.69" y2="527.85" xlink:href="#linear-gradient"/><linearGradient id="linear-gradient-3" x1="116.77" y1="492.71" x2="877.73" y2="649.23" xlink:href="#linear-gradient"/><linearGradient id="linear-gradient-4" x1="99.7" y1="575.69" x2="860.66" y2="732.21" xlink:href="#linear-gradient"/><linearGradient id="linear-gradient-5" x1="158.81" y1="288.3" x2="919.77" y2="444.82" xlink:href="#linear-gradient"/></defs><polygon class="cls-1" points="335.08 452.53 335.05 452.36 335.05 452.36 335.08 452.53"/><polygon class="cls-2" points="447.43 730.08 381.25 819.28 381.27 402.06 447.45 312.86 447.43 730.08"/><polygon class="cls-2" points="292.47 673.91 226.29 763.11 169.6 555.93 235.78 466.72 292.47 673.91"/><path class="cls-3" d="M992.75,328.57l-36.1-13.12-27.8,103,91.5,33.27A513.35,513.35,0,0,0,992.75,328.57Z"/><path class="cls-3" d="M37.15,694.38l34.18,12.43c52.43-37.77,61.18-55,47.28-95.94l-115-41.79A513.9,513.9,0,0,0,37.15,694.38Z"/><polygon class="cls-1" points="647.65 385.81 647.61 385.63 647.61 385.63 647.65 385.81"/><polygon class="cls-2" points="646.75 620.18 580.57 709.38 580.57 293.92 646.75 204.72 646.75 620.18"/><polygon class="cls-2" points="858.54 466.39 792.36 555.6 735.51 348.48 801.69 259.28 858.54 466.39"/><path class="cls-4" d="M381.25,819.28h0L525.83,283.52c18-66.65,66.72-98.42,120.92-78.8h0L502.17,740.48C484.18,807.13,435.44,838.9,381.25,819.28Z"/><path class="cls-5" d="M580.72,709.44l-.15-.06,100.25-371.5c18-66.6,66.71-98.3,120.87-78.6h0L701.44,630.78C683.48,697.31,634.82,729,580.72,709.44Z"/><path class="cls-6" d="M226.29,763.11h0L326.53,391.66c18-66.65,66.73-98.42,120.92-78.8h0L347.21,684.31C329.22,751,280.48,782.72,226.29,763.11Z"/><path class="cls-6" d="M71.33,706.81h0l43.53-161.29c18-66.65,66.73-98.41,120.92-78.8h0L192.25,628C174.27,694.66,125.53,726.43,71.33,706.81Z"/><path class="cls-5" d="M792.36,555.6l-.16-.06,43.58-161.48c18-66.54,66.61-98.25,120.71-78.67l.16.06L913.07,476.93C895.11,543.47,846.46,575.18,792.36,555.6Z"/><path class="cls-7" d="M646.75,204.72c-54.2-19.62-102.94,12.15-120.92,78.8L381.24,819.28h0c54.19,19.62,102.93-12.15,120.92-78.8L646.75,204.72Z"/><path class="cls-8" d="M801.69,259.28c-54.16-19.7-102.89,12-120.87,78.6L580.57,709.38l.15.06c54.1,19.58,102.76-12.13,120.72-78.66l100.25-371.5Z"/><path class="cls-9" d="M447.45,312.86c-54.19-19.62-102.93,12.15-120.92,78.8L226.29,763.11h0c54.19,19.61,102.93-12.15,120.92-78.8L447.45,312.86Z"/><path class="cls-10" d="M235.78,466.72c-54.19-19.61-102.94,12.15-120.92,78.8L71.33,706.81h0c54.2,19.62,102.94-12.15,120.92-78.8l43.53-161.29Z"/><path class="cls-11" d="M956.49,315.39c-54.1-19.58-102.76,12.13-120.71,78.67L792.2,555.54l.16.06c54.1,19.58,102.75-12.13,120.71-78.67l43.58-161.48Z"/></svg>