<svg id="Layer_1" data-name="Layer 1" xmlns="http://www.w3.org/2000/svg" xmlns:xlink="http://www.w3.org/1999/xlink" viewBox="0 0 408.69 466.52"><defs><style>.cls-1{fill:none;}.cls-2{clip-path:url(#clip-path);}.cls-3{fill:#8f8f8f;}.cls-4{fill:#4d4d4d;}.cls-5{fill:#6ccef5;}.cls-6{fill:#00efb6;}.cls-7{fill:#ffa7ff;}.cls-8{clip-path:url(#clip-path-3);}.cls-9{fill:url(#linear-gradient);}.cls-10{clip-path:url(#clip-path-4);}.cls-11{fill:url(#linear-gradient-2);}.cls-12{clip-path:url(#clip-path-5);}.cls-13{fill:url(#linear-gradient-3);}.cls-14{clip-path:url(#clip-path-6);}.cls-15{fill:url(#linear-gradient-4);}.cls-16{clip-path:url(#clip-path-7);}.cls-17{fill:url(#linear-gradient-5);}</style><clipPath id="clip-path"><rect class="cls-1" x="-0.23" y="-72.49" width="409.12" height="409.12"/></clipPath><clipPath id="clip-path-3"><path class="cls-1" d="M210,40.94,152.2,255h0c21.65,7.83,41.12-4.86,48.31-31.48L258.27,9.45A36.66,36.66,0,0,0,245.8,7.16c-16.38,0-30.07,12.39-35.84,33.78"/></clipPath><linearGradient id="linear-gradient" x1="-832.25" y1="-824.68" x2="-831.85" y2="-824.68" gradientTransform="matrix(0, 776.89, 776.89, 0, 640893.84, 646546.35)" gradientUnits="userSpaceOnUse"><stop offset="0" stop-color="#ffa7ff"/><stop offset="0.5" stop-color="#6ccef5"/><stop offset="1" stop-color="#00efb6"/></linearGradient><clipPath id="clip-path-4"><path class="cls-1" d="M271.88,62.66l-40,148.42.06,0c21.62,7.83,41.06-4.84,48.23-31.42L320.18,31.25a36.54,36.54,0,0,0-12.52-2.31c-16.35,0-30,12.37-35.78,33.72"/></clipPath><linearGradient id="linear-gradient-2" x1="-832.25" y1="-824.73" x2="-831.85" y2="-824.73" gradientTransform="matrix(0, 776.89, 776.89, 0, 641002.41, 646468.1)" xlink:href="#linear-gradient"/><clipPath id="clip-path-5"><path class="cls-1" d="M130.33,84.14l-40,148.41h0c21.65,7.83,41.12-4.86,48.31-31.49l40.05-148.4h0a36.49,36.49,0,0,0-12.48-2.3c-16.38,0-30.07,12.4-35.84,33.78"/></clipPath><linearGradient id="linear-gradient-3" x1="-832.25" y1="-824.64" x2="-831.85" y2="-824.64" gradientTransform="matrix(0, 776.89, 776.89, 0, 640786.34, 646623.98)" xlink:href="#linear-gradient"/><clipPath id="clip-path-6"><path class="cls-1" d="M45.77,145.61,28.38,210.05C50,217.89,69.5,205.2,76.69,178.57l17.39-64.44a36.7,36.7,0,0,0-12.47-2.29c-16.38,0-30.07,12.39-35.84,33.77"/></clipPath><linearGradient id="linear-gradient-4" x1="-832.25" y1="-824.57" x2="-831.85" y2="-824.57" gradientTransform="matrix(0, 776.89, 776.89, 0, 640662.26, 646711.25)" xlink:href="#linear-gradient"/><clipPath id="clip-path-7"><path class="cls-1" d="M333.79,85.1l-17.41,64.52.07,0c21.61,7.82,41.05-4.85,48.23-31.43l17.41-64.52-.07,0a36.55,36.55,0,0,0-12.45-2.29c-16.35,0-30,12.37-35.78,33.72"/></clipPath><linearGradient id="linear-gradient-5" x1="-832.25" y1="-824.8" x2="-831.85" y2="-824.8" gradientTransform="matrix(0, 776.89, 776.89, 0, 641126.33, 646380.99)" xlink:href="#linear-gradient"/></defs><path d="M30.36,410.35V401H27.59v-3.18a2.64,2.64,0,0,0,2.94-2.73v-2.7H34v5.43h3.21V401H34v8.64c0,1.87.45,2.56,1.66,2.56a2.83,2.83,0,0,0,1.72-.55l1.59,2.8a6.94,6.94,0,0,1-3.76,1.07C32.12,415.53,30.36,413.67,30.36,410.35Z"/><path d="M57,404.68v10.44H53.35v-9.58c0-2.94-1.59-4.7-4.25-4.7-2.21,0-3.7,2.07-3.7,5.11v9.17H41.73V390.4H45.4v8.92a5.74,5.74,0,0,1,4.6-1.8C54.22,397.52,57,400.39,57,404.68Z"/><path d="M68.6,412A4.5,4.5,0,0,0,73,409.14l3.36,1.14a8.12,8.12,0,0,1-7.71,5.25c-4.77,0-8.27-3.94-8.27-9.16s3.5-9,8.27-9,8.19,3.81,8.26,9v1.24H64A4.76,4.76,0,0,0,68.6,412ZM64,404.85h9.13a4.62,4.62,0,0,0-9.13,0Z"/><path d="M104.9,404.68v10.44h-3.67v-9.58c0-2.94-1.59-4.7-4.25-4.7-2.21,0-3.7,2.07-3.7,5.11v9.17H89.62V390.4h3.66v8.92a5.74,5.74,0,0,1,4.6-1.8C102.1,397.52,104.9,400.39,104.9,404.68Z"/><path d="M124.4,412.25v2.87h-1.7a3.32,3.32,0,0,1-3.07-1.87,5.26,5.26,0,0,1-4.5,2.28c-4.11,0-6.78-2.31-6.78-5.91,0-5.08,6.4-5.64,10.76-5v-1.28c0-.9-.9-2.32-3.46-2.32a3.58,3.58,0,0,0-3.35,2.32l-3.25-1.21a6.57,6.57,0,0,1,6.63-4.71c5,0,7,3.64,7,5.4v7.57C122.67,412.32,123.32,412.25,124.4,412.25Zm-5.29-4.6c-4.5-.59-7.16.1-7.16,2,0,4.08,7.16,2.91,7.16-.48Z"/><path d="M136.22,397.55v3.36a5.56,5.56,0,0,0-1.42-.18c-2.49,0-3.77,1.63-3.77,4.81v9.58h-3.66V397.83h3l.42,1.73c.62-.9,1.69-2.08,4.46-2.08A7.24,7.24,0,0,1,136.22,397.55Z"/><path d="M155,390.33v25H152l-.41-2.21a7.46,7.46,0,0,1-5.43,2.63c-4.84,0-8.37-3.91-8.37-9.24s3.53-9.23,8.37-9.23a6.14,6.14,0,0,1,5.22,2.56v-9.47Zm-3.67,16.14c0-3.42-2-5.74-4.87-5.74s-5.05,2.39-5.05,5.74,2.11,5.74,5.05,5.74S151.36,409.9,151.36,406.47Z"/><path d="M183.9,397.83,178,415.12h-3.14l-3.94-11.93-4,11.93h-3.15l-5.91-17.29h3.91l3.59,11.34,3.6-11.34h3.84l3.59,11.34,3.6-11.34Z"/><path d="M201.91,412.25v2.87h-1.7a3.32,3.32,0,0,1-3.07-1.87,5.26,5.26,0,0,1-4.5,2.28c-4.11,0-6.78-2.31-6.78-5.91,0-5.08,6.4-5.64,10.76-5v-1.28c0-.9-.9-2.32-3.46-2.32a3.58,3.58,0,0,0-3.35,2.32l-3.25-1.21a6.57,6.57,0,0,1,6.63-4.71c5.05,0,7,3.64,7,5.4v7.57C200.18,412.32,200.84,412.25,201.91,412.25Zm-5.29-4.6c-4.5-.59-7.16.1-7.16,2,0,4.08,7.16,2.91,7.16-.48Z"/><path d="M213.73,397.55v3.36a5.62,5.62,0,0,0-1.42-.18c-2.49,0-3.77,1.63-3.77,4.81v9.58h-3.66V397.83h3l.42,1.73c.62-.9,1.69-2.08,4.46-2.08A7.24,7.24,0,0,1,213.73,397.55Z"/><path d="M223.55,412a4.5,4.5,0,0,0,4.35-2.87l3.36,1.14a8.12,8.12,0,0,1-7.71,5.25c-4.77,0-8.27-3.94-8.27-9.16s3.5-9,8.27-9,8.19,3.81,8.26,9v1.24H218.92A4.75,4.75,0,0,0,223.55,412ZM219,404.85h9.13a4.62,4.62,0,0,0-9.13,0Z"/><path d="M251.48,412a4.5,4.5,0,0,0,4.36-2.87l3.35,1.14a8.11,8.11,0,0,1-7.71,5.25c-4.77,0-8.26-3.94-8.26-9.16s3.49-9,8.26-9,8.2,3.81,8.27,9v1.24h-12.9A4.75,4.75,0,0,0,251.48,412Zm-4.56-7.16h9.13a4.62,4.62,0,0,0-9.13,0Z"/><path d="M277.58,404.85v10.27h-3.66v-8.89c0-3.7-1.14-5.5-3.46-5.5-2.49,0-3.77,1.63-3.77,4.81v9.58H263V397.83h3l.42,1.73a4.83,4.83,0,0,1,4.46-2.15C275,397.41,277.58,400.28,277.58,404.85Z"/><path d="M289.13,394a2.09,2.09,0,0,0-2.14,2.35v1.45h4.22V401H287v14.11h-3.67V401h-2.9v-3.18h2.9v-1.45a5.83,5.83,0,0,1,8.65-5.15l-1.59,3.14A2,2,0,0,0,289.13,394Z"/><path d="M292.76,406.44c0-5.19,3.6-9,8.68-9s8.68,3.8,8.68,9-3.6,9-8.68,9S292.76,411.63,292.76,406.44Zm13.69,0c0-3.18-2-5.33-5-5.33s-5,2.15-5,5.33,2,5.32,5,5.32S306.45,409.62,306.45,406.44Z"/><path d="M322.25,397.55v3.36a5.56,5.56,0,0,0-1.42-.18c-2.49,0-3.77,1.63-3.77,4.81v9.58H313.4V397.83h3l.42,1.73c.62-.9,1.69-2.08,4.46-2.08A7.24,7.24,0,0,1,322.25,397.55Z"/><path d="M332.48,415.43c-5.08,0-8.67-3.8-8.67-9s3.59-9,8.67-9a8.13,8.13,0,0,1,8,5.36L337,404a4.52,4.52,0,0,0-4.5-2.91c-3,0-5,2.15-5,5.33s2,5.32,5,5.32a4.44,4.44,0,0,0,4.5-2.87l3.49,1.18A8.12,8.12,0,0,1,332.48,415.43Z"/><path d="M351.64,412a4.5,4.5,0,0,0,4.35-2.87l3.36,1.14a8.12,8.12,0,0,1-7.71,5.25c-4.78,0-8.27-3.94-8.27-9.16s3.49-9,8.27-9,8.19,3.81,8.26,9v1.24H347A4.76,4.76,0,0,0,351.64,412Zm-4.57-7.16h9.13a4.62,4.62,0,0,0-9.13,0Z"/><path d="M380,390.33v25h-3.05l-.41-2.21a7.46,7.46,0,0,1-5.43,2.63c-4.84,0-8.37-3.91-8.37-9.24s3.53-9.23,8.37-9.23a6.15,6.15,0,0,1,5.22,2.56v-9.47Zm-3.67,16.14c0-3.42-2-5.74-4.87-5.74s-5.05,2.39-5.05,5.74,2.11,5.74,5.05,5.74S376.32,409.9,376.32,406.47Z"/><path d="M43.8,445.23c0,4.85-3.2,8.46-7.67,8.46a6.12,6.12,0,0,1-4.78-2.44v8.62H28V437.31h2.78l.38,2a6.84,6.84,0,0,1,5-2.4C40.57,436.93,43.8,440.51,43.8,445.23Zm-3.36,0c0-2.92-1.93-5.1-4.63-5.1s-4.46,2.12-4.46,5.1,1.77,5.26,4.46,5.26S40.44,448.27,40.44,445.23Z"/><path d="M61,450.52v2.63H59.39a3.07,3.07,0,0,1-2.82-1.71,4.79,4.79,0,0,1-4.12,2.09c-3.77,0-6.21-2.12-6.21-5.42,0-4.66,5.86-5.16,9.86-4.59v-1.18c0-.82-.83-2.12-3.17-2.12a3.32,3.32,0,0,0-3.08,2.12l-3-1.1A6,6,0,0,1,53,436.93c4.63,0,6.4,3.32,6.4,4.94v6.94C59.36,450.58,60,450.52,61,450.52Zm-4.85-4.21c-4.12-.54-6.56.09-6.56,1.8,0,3.74,6.56,2.67,6.56-.44Z"/><path d="M76.45,437.31,70,456.19a5.06,5.06,0,0,1-6.43,3.43,3.9,3.9,0,0,1-2.19-1.94l2-1.74a1.75,1.75,0,0,0,1.49,1.17c1.2,0,1.81-.69,2.6-3l.35-1h-.7l-5.39-15.84h3.55L69,448.46l3.87-11.15Z"/><path d="M100.82,443.74v9.41H97.46V445c0-3.55-.86-5-2.85-5-2.16,0-3.14,1.36-3.14,4.4v8.78H88.11V445c0-3.55-.86-5-2.85-5-2.16,0-3.14,1.36-3.14,4.4v8.78H78.76V437.31h2.79l.38,1.58a4.74,4.74,0,0,1,8.21.95,5.4,5.4,0,0,1,5.07-2.91C98.82,436.93,100.82,439.37,100.82,443.74Z"/><path d="M111.31,450.3a4.11,4.11,0,0,0,4-2.63l3.08,1.05a7.46,7.46,0,0,1-7.07,4.81c-4.37,0-7.58-3.61-7.58-8.4s3.21-8.2,7.58-8.2,7.51,3.48,7.57,8.2v1.15H107.06A4.35,4.35,0,0,0,111.31,450.3Zm-4.18-6.56h8.36a4.23,4.23,0,0,0-8.36,0Z"/><path d="M135.24,443.74v9.41h-3.36V445c0-3.39-1-5-3.17-5-2.28,0-3.45,1.49-3.45,4.4v8.78H121.9V437.31h2.79l.37,1.58a4.47,4.47,0,0,1,4.09-2C132.89,436.93,135.24,439.56,135.24,443.74Z"/><path d="M139.71,448.78v-8.56h-2.54v-2.91a2.42,2.42,0,0,0,2.7-2.51v-2.47h3.2v5h3v2.91h-3v7.92c0,1.72.41,2.35,1.52,2.35a2.6,2.6,0,0,0,1.58-.51l1.46,2.57a6.38,6.38,0,0,1-3.45,1C141.32,453.53,139.71,451.82,139.71,448.78Z"/><path d="M159.45,452.07a5.74,5.74,0,0,1-1.87-4.56h3.27c-.22,1.78,1,2.95,3.17,2.95,1.87,0,3.07-.7,3.07-1.71,0-1.27-1.08-1.52-5-2.47-2.83-.7-4-2.19-4-4.57,0-2.91,2.28-4.78,5.8-4.78,3.36,0,5.26,1.42,6,4.5l-2.88.95c-.54-1.78-1.33-2.41-3.08-2.41s-2.66.69-2.66,1.8.38,1.53,1.65,1.87c5.64,1.56,7.32,2.06,7.32,5.11,0,2.79-2.56,4.78-6.15,4.78A7.08,7.08,0,0,1,159.45,452.07Z"/><path d="M187.69,437.31l-6.43,18.88a5.07,5.07,0,0,1-6.44,3.43,3.91,3.91,0,0,1-2.18-1.94l2-1.74a1.75,1.75,0,0,0,1.49,1.17c1.2,0,1.8-.69,2.6-3l.34-1h-.69L173,437.31h3.55l3.71,11.15,3.86-11.15Z"/><path d="M191.5,452.07a5.67,5.67,0,0,1-1.87-4.56h3.26c-.22,1.78,1.05,2.95,3.17,2.95,1.87,0,3.07-.7,3.07-1.71,0-1.27-1.07-1.52-5-2.47-2.82-.7-4-2.19-4-4.57,0-2.91,2.28-4.78,5.8-4.78,3.35,0,5.26,1.42,6,4.5l-2.89.95c-.54-1.78-1.33-2.41-3.07-2.41s-2.66.69-2.66,1.8.38,1.53,1.64,1.87c5.65,1.56,7.33,2.06,7.33,5.11,0,2.79-2.57,4.78-6.15,4.78A7,7,0,0,1,191.5,452.07Z"/><path d="M206.49,448.78v-8.56H204v-2.91a2.42,2.42,0,0,0,2.7-2.51v-2.47h3.2v5h2.94v2.91h-2.94v7.92c0,1.72.41,2.35,1.52,2.35A2.6,2.6,0,0,0,213,450l1.46,2.57a6.38,6.38,0,0,1-3.45,1C208.1,453.53,206.49,451.82,206.49,448.78Z"/><path d="M223,450.3a4.11,4.11,0,0,0,4-2.63l3.08,1.05a7.45,7.45,0,0,1-7.07,4.81c-4.37,0-7.57-3.61-7.57-8.4s3.2-8.2,7.57-8.2,7.51,3.48,7.58,8.2v1.15H218.78A4.35,4.35,0,0,0,223,450.3Zm-4.18-6.56h8.37a4.24,4.24,0,0,0-8.37,0Z"/><path d="M255.68,443.74v9.41h-3.36V445c0-3.55-.86-5-2.86-5-2.15,0-3.13,1.36-3.13,4.4v8.78H243V445c0-3.55-.86-5-2.86-5-2.15,0-3.13,1.36-3.13,4.4v8.78h-3.36V437.31h2.79l.38,1.58a4.74,4.74,0,0,1,8.21.95,5.38,5.38,0,0,1,5.07-2.91C253.68,436.93,255.68,439.37,255.68,443.74Z"/><path d="M67.9,321.7c0,10.14-7.44,17.58-17.58,17.58H39.7v22.07H29.07V304.13H50.32C60.46,304.13,67.9,311.57,67.9,321.7Zm-9.81,0c0-4.66-3.27-7.76-8-7.76H39.7v15.53H50.08C54.82,329.47,58.09,326.36,58.09,321.7Z"/><path d="M86.94,338.7v22.65H76.48V304.13H86.94v24.93h25.51V304.13h10.46v57.22H112.45V338.7Z"/><path d="M131.58,332.74c0-16.84,11.93-29.59,28.61-29.59s28.61,12.75,28.61,29.59-11.94,29.59-28.61,29.59S131.58,349.57,131.58,332.74Zm46.59,0c0-11-7.36-19-18-19s-18,8-18,19,7.36,19,18,19S178.17,343.69,178.17,332.74Z"/><path d="M251.25,304.13v57.22H240.54l-31.23-41.77v41.77H198.69V304.13h12.42l29.51,39.8v-39.8Z"/><path d="M259.91,332.74c0-16.84,11.94-29.59,28.61-29.59s28.61,12.75,28.61,29.59-11.93,29.59-28.61,29.59S259.91,349.57,259.91,332.74Zm46.6,0c0-11-7.36-19-18-19s-18,8-18,19,7.36,19,18,19S306.51,343.69,306.51,332.74Z"/><path d="M379.58,304.13v57.22h-10.7l-31.23-41.77v41.77H327V304.13h12.43L369,343.93v-39.8Z"/><g class="cls-2"><path class="cls-3" d="M133.75,108.46v0Z"/><polygon class="cls-4" points="178.64 219.35 152.2 254.99 152.21 88.3 178.65 52.66 178.64 219.35"/><polygon class="cls-4" points="116.73 196.91 90.28 232.55 67.64 149.77 94.08 114.13 116.73 196.91"/><path class="cls-3" d="M258.63,81.8v0Z"/><polygon class="cls-4" points="258.27 175.44 231.83 211.08 231.83 45.09 258.27 9.45 258.27 175.44"/><polygon class="cls-4" points="342.89 114 316.45 149.64 293.73 66.89 320.18 31.25 342.89 114"/><g class="cls-2"><path class="cls-5" d="M152.2,255h0L210,40.94c7.19-26.63,26.66-39.32,48.31-31.49L200.51,223.51c-7.19,26.62-26.66,39.31-48.31,31.48"/><path class="cls-6" d="M231.89,211.1l-.06,0,40-148.42c7.19-26.62,26.66-39.28,48.3-31.41h0L280.12,179.68c-7.17,26.58-26.61,39.25-48.23,31.42"/><path class="cls-7" d="M90.29,232.55h0l40-148.41c7.19-26.63,26.67-39.32,48.32-31.48L138.6,201.06c-7.19,26.63-26.66,39.32-48.31,31.49"/><path class="cls-7" d="M28.38,210.05h0l17.39-64.44C53,119,72.43,106.29,94.08,114.13L76.69,178.57C69.5,205.2,50,217.89,28.38,210.05"/><path class="cls-6" d="M316.45,149.64l-.07,0L333.79,85.1C341,58.52,360.41,45.85,382,53.67l.07,0-17.41,64.52c-7.18,26.58-26.62,39.25-48.23,31.43"/></g><g class="cls-8"><rect class="cls-9" x="69.34" y="57.29" width="271.79" height="155.41" transform="translate(31.66 308.82) rotate(-78.38)"/></g><g class="cls-10"><rect class="cls-11" x="174.06" y="61.53" width="203.89" height="124.81" transform="translate(99.01 369.31) rotate(-78.38)"/></g><g class="cls-12"><rect class="cls-13" x="32.5" y="82.96" width="203.93" height="124.83" transform="translate(-35.02 247.79) rotate(-78.38)"/></g><g class="cls-14"><rect class="cls-15" x="2.67" y="122" width="117.12" height="85.72" transform="translate(-112.59 191.62) rotate(-78.38)"/></g><g class="cls-16"><rect class="cls-17" x="290.66" y="61.56" width="117.14" height="85.73" transform="translate(176.6 425.46) rotate(-78.38)"/></g></g></svg>