<svg id="Layer_1" data-name="Layer 1" xmlns="http://www.w3.org/2000/svg" xmlns:xlink="http://www.w3.org/1999/xlink" viewBox="0 0 420.31 160.32"><defs><style>.cls-1{fill:url(#linear-gradient);}.cls-2{fill:url(#linear-gradient-2);}.cls-3{fill:url(#linear-gradient-3);}</style><linearGradient id="linear-gradient" x1="1.46" y1="-407.38" x2="2.46" y2="-407.38" gradientTransform="matrix(241.77, 212.4, 212.4, -241.77, 86226.76, -98881.48)" gradientUnits="userSpaceOnUse"><stop offset="0" stop-color="#ffa7ff"/><stop offset="0.46" stop-color="#6ccef5"/><stop offset="0.98" stop-color="#00efb6"/><stop offset="1" stop-color="#00efb6"/></linearGradient><linearGradient id="linear-gradient-2" x1="1.46" y1="-407.6" x2="2.46" y2="-407.6" xlink:href="#linear-gradient"/><linearGradient id="linear-gradient-3" x1="1.46" y1="-407.57" x2="2.46" y2="-407.57" xlink:href="#linear-gradient"/></defs><path class="cls-1" d="M4.68,33.84V18.06H0V12.68A4.45,4.45,0,0,0,5,8.06V3.51h5.9v9.17h5.44v5.38H10.87V32.67c0,3.15.76,4.32,2.81,4.32a4.87,4.87,0,0,0,2.92-.93l2.69,4.73a11.77,11.77,0,0,1-6.37,1.81C7.66,42.6,4.68,39.45,4.68,33.84Zm45-9.59V41.9H43.48V25.71c0-5-2.69-7.94-7.19-7.94-3.74,0-6.25,3.5-6.25,8.65V41.9h-6.2V.12H30V15.19c1.52-1.92,4.32-3,7.77-3C44.94,12.16,49.67,17,49.67,24.25ZM69.19,36.64a7.59,7.59,0,0,0,7.36-4.85l5.67,1.93a13.72,13.72,0,0,1-13,8.88c-8.07,0-14-6.66-14-15.48,0-8.59,5.9-15.14,14-15.14s13.85,6.43,14,15.14v2.1H61.36C62,33.6,65.1,36.64,69.19,36.64ZM61.47,24.55H76.9c-.87-4-3.8-6.61-7.71-6.61S62.35,20.57,61.47,24.55Zm69.08-.3V41.9h-6.2V25.71c0-5-2.69-7.94-7.19-7.94-3.74,0-6.25,3.5-6.25,8.65V41.9h-6.2V.12h6.2V15.19c1.52-1.92,4.32-3,7.77-3C125.81,12.16,130.55,17,130.55,24.25Zm32.89,12.8V41.9h-2.86a5.66,5.66,0,0,1-5.2-3.15,8.87,8.87,0,0,1-7.6,3.85c-6.95,0-11.45-3.91-11.45-10,0-8.59,10.81-9.53,18.17-8.47V22c0-1.52-1.52-3.91-5.84-3.91A6.09,6.09,0,0,0,143,22l-5.49-2c1.28-4.79,5.72-7.95,11.22-7.95,8.53,0,11.8,6.14,11.8,9.12V33.9C160.52,37.17,161.63,37.05,163.44,37.05Zm-8.94-7.77c-7.59-1-12.09.17-12.09,3.33,0,6.9,12.09,4.91,12.09-.82Zm28.93-17.07v5.67a10.24,10.24,0,0,0-2.4-.29c-4.21,0-6.37,2.75-6.37,8.12V41.9h-6.19V12.68h5.14l.7,2.92c1.05-1.52,2.86-3.5,7.54-3.5A12.56,12.56,0,0,1,183.43,12.21ZM215.16,0V42.19H210l-.71-3.74a12.55,12.55,0,0,1-9.17,4.45C192,42.9,186,36.29,186,27.29s6-15.6,14.14-15.6A10.37,10.37,0,0,1,209,16V0ZM209,27.29c0-5.78-3.33-9.7-8.24-9.7s-8.53,4-8.53,9.7,3.57,9.7,8.53,9.7S209,33.08,209,27.29Zm55-14.61L254,41.9h-5.31L242,21.74,235.26,41.9h-5.32L220,12.68h6.61l6.07,19.17,6.08-19.17h6.49l6.08,19.17,6.07-19.17Zm30.38,24.37V41.9h-2.86a5.66,5.66,0,0,1-5.2-3.15,8.89,8.89,0,0,1-7.6,3.85c-7,0-11.46-3.91-11.46-10,0-8.59,10.82-9.53,18.18-8.47V22c0-1.52-1.52-3.91-5.84-3.91A6.08,6.08,0,0,0,273.89,22l-5.5-2c1.29-4.79,5.73-7.95,11.22-7.95,8.54,0,11.81,6.14,11.81,9.12V33.9C291.42,37.17,292.53,37.05,294.34,37.05Zm-8.94-7.77c-7.6-1-12.1.17-12.1,3.33,0,6.9,12.1,4.91,12.1-.82Zm28.92-17.07v5.67a10.22,10.22,0,0,0-2.39-.29c-4.21,0-6.37,2.75-6.37,8.12V41.9h-6.2V12.68h5.15l.7,2.92c1.05-1.52,2.86-3.5,7.54-3.5A12.39,12.39,0,0,1,314.32,12.21Zm16.54,24.43a7.58,7.58,0,0,0,7.36-4.85l5.67,1.93a13.72,13.72,0,0,1-13,8.88c-8.06,0-14-6.66-14-15.48,0-8.59,5.91-15.14,14-15.14s13.85,6.43,14,15.14v2.1H323C323.67,33.6,326.77,36.64,330.86,36.64Zm-7.71-12.09h15.42c-.87-4-3.79-6.61-7.71-6.61S324,20.57,323.15,24.55Z"/><path class="cls-2" d="M14,89.64a7.59,7.59,0,0,0,7.36-4.85L27,86.72A13.72,13.72,0,0,1,14,95.6C5.9,95.6,0,88.94,0,80.12,0,71.53,5.9,65,14,65s13.85,6.43,14,15.14v2.1H6.14C6.78,86.6,9.88,89.64,14,89.64ZM6.25,77.55H21.68c-.87-4-3.8-6.61-7.71-6.61S7.13,73.57,6.25,77.55Zm51.78,0V94.9h-6.2v-15c0-6.25-1.93-9.29-5.84-9.29-4.21,0-6.37,2.75-6.37,8.12V94.9h-6.2V65.68h5.15l.7,2.92c1-1.52,2.92-3.62,7.54-3.62C53.7,65,58,69.83,58,77.55Zm19.45-18.3c-2.22,0-3.62,1.52-3.62,4v2.45H81v5.38H73.86V94.9H67.67V71.06H62.76V65.68h4.91V63.23c0-5.79,4.09-9.94,9.76-9.94a9.63,9.63,0,0,1,4.85,1.23l-2.69,5.32A3.39,3.39,0,0,0,77.48,59.25Zm6.08,21C83.56,71.47,89.64,65,98.23,65s14.67,6.43,14.67,15.19-6.08,15.2-14.67,15.2S83.56,89,83.56,80.23Zm23.14,0c0-5.37-3.33-9-8.47-9s-8.47,3.63-8.47,9,3.33,9,8.47,9S106.7,85.61,106.7,80.23Zm26.65-15v5.67a10.24,10.24,0,0,0-2.4-.29c-4.21,0-6.37,2.75-6.37,8.12V94.9h-6.19V65.68h5.14l.7,2.92c1-1.52,2.87-3.5,7.54-3.5A12.56,12.56,0,0,1,133.35,65.21Zm17.24,30.22c-8.59,0-14.67-6.43-14.67-15.2S142,65,150.59,65c6.37,0,11.33,3.33,13.5,9.06l-5.91,2a7.61,7.61,0,0,0-7.59-4.91c-5.15,0-8.48,3.63-8.48,9s3.33,9,8.48,9c3.74,0,6.25-1.63,7.59-4.85l5.91,2C161.87,92.16,157,95.43,150.59,95.43Zm32.3-5.79a7.6,7.6,0,0,0,7.37-4.85l5.67,1.93a13.73,13.73,0,0,1-13,8.88c-8.06,0-14-6.66-14-15.48,0-8.59,5.9-15.14,14-15.14s13.86,6.43,14,15.14v2.1h-21.8C175.71,86.6,178.8,89.64,182.89,89.64Zm-7.71-12.09h15.43c-.88-4-3.8-6.61-7.72-6.61S176.06,73.57,175.18,77.55ZM230.75,53V95.19h-5.14l-.7-3.74a12.57,12.57,0,0,1-9.18,4.45c-8.18,0-14.14-6.61-14.14-15.61s6-15.6,14.14-15.6A10.39,10.39,0,0,1,224.56,69V53Zm-6.19,27.29c0-5.78-3.33-9.7-8.24-9.7s-8.53,4-8.53,9.7,3.56,9.7,8.53,9.7S224.56,86.08,224.56,80.29Z"/><path class="cls-3" d="M30.16,133.29c0,8.94-5.91,15.61-14.15,15.61a11.33,11.33,0,0,1-8.82-4.5v15.89H1V118.68H6.14l.7,3.74A12.57,12.57,0,0,1,16,118C24.19,118,30.16,124.58,30.16,133.29Zm-6.2,0c0-5.37-3.56-9.41-8.53-9.41s-8.24,3.92-8.24,9.41c0,5.73,3.27,9.7,8.24,9.7S24,138.9,24,133.29Zm37.81,9.76v4.85H58.9a5.67,5.67,0,0,1-5.2-3.15,8.86,8.86,0,0,1-7.59,3.85c-7,0-11.46-3.91-11.46-10,0-8.59,10.81-9.53,18.18-8.47V128c0-1.52-1.52-3.91-5.85-3.91A6.1,6.1,0,0,0,41.31,128l-5.49-2c1.29-4.79,5.73-8,11.22-8,8.53,0,11.81,6.14,11.81,9.12v12.8C58.85,143.17,60,143.05,61.77,143.05Zm-8.94-7.77c-7.6-1-12.1.17-12.1,3.33,0,6.9,12.1,4.91,12.1-.82Zm37.45-16.6L78.42,153.51c-1.75,5.2-6.9,8-11.86,6.31a7.17,7.17,0,0,1-4-3.56l3.74-3.21A3.23,3.23,0,0,0,69,155.21c2.22,0,3.33-1.29,4.79-5.5l.65-1.81H73.16l-9.94-29.22h6.55l6.84,20.57,7.13-20.57Zm44.88,11.87V147.9H129v-15c0-6.54-1.58-9.29-5.26-9.29-4,0-5.79,2.51-5.79,8.12V147.9h-6.19v-15c0-6.54-1.58-9.29-5.26-9.29-4,0-5.79,2.51-5.79,8.12V147.9H94.49V118.68h5.14l.7,2.92c1-1.46,2.57-3.62,7.25-3.62,4,0,6.31,1.58,7.89,5.38,1.69-3.39,5.08-5.38,9.35-5.38C131.48,118,135.16,122.48,135.16,130.55Zm19.28,12.09a7.6,7.6,0,0,0,7.37-4.85l5.66,1.93a13.72,13.72,0,0,1-13,8.88c-8.06,0-14-6.66-14-15.48,0-8.59,5.91-15.14,14-15.14s13.85,6.43,14,15.14v2.1h-21.8C147.25,139.6,150.35,142.64,154.44,142.64Zm-7.71-12.09h15.43c-.88-4-3.8-6.61-7.72-6.61S147.6,126.57,146.73,130.55Zm51.77,0V147.9h-6.19v-15c0-6.25-1.93-9.29-5.85-9.29-4.2,0-6.37,2.75-6.37,8.12V147.9H173.9V118.68H179l.7,2.92c1.06-1.52,2.93-3.62,7.54-3.62C194.18,118,198.5,122.83,198.5,130.55Zm8.24,9.29V124.06h-4.68v-5.38a4.45,4.45,0,0,0,5-4.62v-4.55h5.9v9.17h5.44v5.38h-5.44v14.61c0,3.15.76,4.32,2.81,4.32a4.87,4.87,0,0,0,2.92-.93l2.69,4.73A11.74,11.74,0,0,1,215,148.6C209.72,148.6,206.74,145.45,206.74,139.84Zm36.35,6.08a10.55,10.55,0,0,1-3.45-8.42h6c-.41,3.27,1.93,5.43,5.84,5.43,3.45,0,5.67-1.28,5.67-3.15,0-2.34-2-2.81-9.18-4.56-5.2-1.29-7.36-4-7.36-8.41,0-5.38,4.21-8.83,10.7-8.83,6.19,0,9.7,2.63,11.1,8.3L257.11,128c-1-3.27-2.45-4.44-5.67-4.44-3,0-4.91,1.29-4.91,3.33s.7,2.81,3,3.45c10.4,2.86,13.5,3.8,13.5,9.41,0,5.14-4.73,8.82-11.34,8.82A13.07,13.07,0,0,1,243.09,145.92Zm52-27.24-11.86,34.83c-1.75,5.2-6.9,8-11.86,6.31a7.17,7.17,0,0,1-4-3.56l3.74-3.21a3.25,3.25,0,0,0,2.75,2.16c2.22,0,3.33-1.29,4.79-5.5l.65-1.81H278L268,118.68h6.54l6.84,20.57,7.13-20.57Zm7,27.24a10.55,10.55,0,0,1-3.45-8.42h6c-.41,3.27,1.93,5.43,5.84,5.43,3.45,0,5.67-1.28,5.67-3.15,0-2.34-2-2.81-9.17-4.56-5.2-1.29-7.37-4-7.37-8.41,0-5.38,4.21-8.83,10.7-8.83,6.19,0,9.7,2.63,11.1,8.3L316.12,128c-1-3.27-2.45-4.44-5.67-4.44-3,0-4.9,1.29-4.9,3.33s.7,2.81,3,3.45c10.41,2.86,13.5,3.8,13.5,9.41,0,5.14-4.73,8.82-11.33,8.82A13.08,13.08,0,0,1,302.1,145.92Zm27.58-6.08V124.06H325v-5.38a4.45,4.45,0,0,0,5-4.62v-4.55h5.9v9.17h5.43v5.38h-5.43v14.61c0,3.15.76,4.32,2.8,4.32a4.9,4.9,0,0,0,2.93-.93l2.68,4.73a11.74,11.74,0,0,1-6.37,1.81C332.66,148.6,329.68,145.45,329.68,139.84Zm30.5,2.8a7.6,7.6,0,0,0,7.37-4.85l5.66,1.93a13.72,13.72,0,0,1-13,8.88c-8.06,0-14-6.66-14-15.48,0-8.59,5.91-15.14,14-15.14s13.85,6.43,14,15.14v2.1h-21.8C353,139.6,356.09,142.64,360.18,142.64Zm-7.71-12.09H367.9c-.88-4-3.8-6.61-7.72-6.61S353.34,126.57,352.47,130.55Zm67.84,0V147.9h-6.19v-15c0-6.54-1.58-9.29-5.26-9.29-4,0-5.79,2.51-5.79,8.12V147.9h-6.19v-15c0-6.54-1.58-9.29-5.26-9.29-4,0-5.79,2.51-5.79,8.12V147.9h-6.19V118.68h5.14l.7,2.92c1-1.46,2.57-3.62,7.25-3.62,4,0,6.31,1.58,7.89,5.38C402.31,120,405.7,118,410,118,416.63,118,420.31,122.48,420.31,130.55Z"/></svg>