<svg id="Layer_1" data-name="Layer 1" xmlns="http://www.w3.org/2000/svg" xmlns:xlink="http://www.w3.org/1999/xlink" viewBox="0 0 408.69 389.7"><defs><style>.cls-1{fill:none;}.cls-2{clip-path:url(#clip-path);}.cls-3{fill:#8f8f8f;}.cls-4{fill:#4d4d4d;}.cls-5{fill:#6ccef5;}.cls-6{fill:#00efb6;}.cls-7{fill:#ffa7ff;}.cls-8{clip-path:url(#clip-path-3);}.cls-9{fill:url(#linear-gradient);}.cls-10{clip-path:url(#clip-path-4);}.cls-11{fill:url(#linear-gradient-2);}.cls-12{clip-path:url(#clip-path-5);}.cls-13{fill:url(#linear-gradient-3);}.cls-14{clip-path:url(#clip-path-6);}.cls-15{fill:url(#linear-gradient-4);}.cls-16{clip-path:url(#clip-path-7);}.cls-17{fill:url(#linear-gradient-5);}.cls-18{fill:#fff;}</style><clipPath id="clip-path"><rect class="cls-1" x="-0.23" y="-72.49" width="409.12" height="409.12"/></clipPath><clipPath id="clip-path-3"><path class="cls-1" d="M210,40.94,152.2,255h0c21.65,7.83,41.12-4.86,48.31-31.48L258.27,9.45A36.66,36.66,0,0,0,245.8,7.16c-16.38,0-30.07,12.39-35.84,33.78"/></clipPath><linearGradient id="linear-gradient" x1="-370.18" y1="-824.8" x2="-369.78" y2="-824.8" gradientTransform="matrix(0, 776.89, 776.89, 0, 640987.11, 287568.36)" gradientUnits="userSpaceOnUse"><stop offset="0" stop-color="#ffa7ff"/><stop offset="0.5" stop-color="#6ccef5"/><stop offset="1" stop-color="#00efb6"/></linearGradient><clipPath id="clip-path-4"><path class="cls-1" d="M271.88,62.66l-40,148.42.06,0c21.62,7.83,41.06-4.84,48.23-31.42L320.18,31.25a36.54,36.54,0,0,0-12.52-2.31c-16.35,0-30,12.37-35.78,33.72"/></clipPath><linearGradient id="linear-gradient-2" x1="-370.18" y1="-824.85" x2="-369.78" y2="-824.85" gradientTransform="matrix(0, 776.89, 776.89, 0, 641095.63, 287490.11)" xlink:href="#linear-gradient"/><clipPath id="clip-path-5"><path class="cls-1" d="M130.33,84.14l-40,148.41h0c21.65,7.83,41.12-4.86,48.31-31.49l40.05-148.4h0a36.49,36.49,0,0,0-12.48-2.3c-16.38,0-30.07,12.4-35.84,33.78"/></clipPath><linearGradient id="linear-gradient-3" x1="-370.18" y1="-824.76" x2="-369.78" y2="-824.76" gradientTransform="matrix(0, 776.89, 776.89, 0, 640879.62, 287646)" xlink:href="#linear-gradient"/><clipPath id="clip-path-6"><path class="cls-1" d="M45.77,145.61,28.38,210.05C50,217.89,69.5,205.2,76.69,178.57l17.39-64.44a36.7,36.7,0,0,0-12.47-2.29c-16.38,0-30.07,12.39-35.84,33.77"/></clipPath><linearGradient id="linear-gradient-4" x1="-370.18" y1="-824.69" x2="-369.78" y2="-824.69" gradientTransform="matrix(0, 776.89, 776.89, 0, 640755.53, 287733.27)" xlink:href="#linear-gradient"/><clipPath id="clip-path-7"><path class="cls-1" d="M333.79,85.1l-17.41,64.52.07,0c21.61,7.82,41.05-4.85,48.23-31.43l17.41-64.52-.07,0a36.55,36.55,0,0,0-12.45-2.29c-16.35,0-30,12.37-35.78,33.72"/></clipPath><linearGradient id="linear-gradient-5" x1="-370.18" y1="-824.92" x2="-369.78" y2="-824.92" gradientTransform="matrix(0, 776.89, 776.89, 0, 641219.66, 287403.01)" xlink:href="#linear-gradient"/></defs><g class="cls-2"><path class="cls-3" d="M133.75,108.46v0Z"/><polygon class="cls-4" points="178.64 219.35 152.2 254.99 152.21 88.3 178.65 52.66 178.64 219.35"/><polygon class="cls-4" points="116.73 196.91 90.28 232.55 67.64 149.77 94.08 114.13 116.73 196.91"/><path class="cls-3" d="M258.63,81.8v0Z"/><polygon class="cls-4" points="258.27 175.44 231.83 211.08 231.83 45.09 258.27 9.45 258.27 175.44"/><polygon class="cls-4" points="342.89 114 316.45 149.64 293.73 66.89 320.18 31.25 342.89 114"/><g class="cls-2"><path class="cls-5" d="M152.2,255h0L210,40.94c7.19-26.63,26.66-39.32,48.31-31.49L200.51,223.51c-7.19,26.62-26.66,39.31-48.31,31.48"/><path class="cls-6" d="M231.89,211.1l-.06,0,40-148.42c7.19-26.62,26.66-39.28,48.3-31.41h0L280.12,179.68c-7.17,26.58-26.61,39.25-48.23,31.42"/><path class="cls-7" d="M90.29,232.55h0l40-148.41c7.19-26.63,26.67-39.32,48.32-31.48L138.6,201.06c-7.19,26.63-26.66,39.32-48.31,31.49"/><path class="cls-7" d="M28.38,210.05h0l17.39-64.44C53,119,72.43,106.29,94.08,114.13L76.69,178.57C69.5,205.2,50,217.89,28.38,210.05"/><path class="cls-6" d="M316.45,149.64l-.07,0L333.79,85.1C341,58.52,360.41,45.85,382,53.67l.07,0-17.41,64.52c-7.18,26.58-26.62,39.25-48.23,31.43"/></g><g class="cls-8"><rect class="cls-9" x="69.34" y="57.29" width="271.79" height="155.41" transform="translate(31.66 308.82) rotate(-78.38)"/></g><g class="cls-10"><rect class="cls-11" x="174.06" y="61.53" width="203.89" height="124.81" transform="translate(99.01 369.31) rotate(-78.38)"/></g><g class="cls-12"><rect class="cls-13" x="32.5" y="82.96" width="203.93" height="124.83" transform="translate(-35.02 247.79) rotate(-78.38)"/></g><g class="cls-14"><rect class="cls-15" x="2.67" y="122" width="117.12" height="85.72" transform="matrix(0.2, -0.98, 0.98, 0.2, -112.59, 191.62)"/></g><g class="cls-16"><rect class="cls-17" x="290.66" y="61.56" width="117.14" height="85.73" transform="translate(176.6 425.46) rotate(-78.38)"/></g></g><path class="cls-18" d="M228.22,325V320.9H227v-1.39a1.17,1.17,0,0,0,1.3-1.21v-1.18h1.53v2.39h1.42v1.39h-1.42v3.81c0,.82.2,1.12.73,1.12a1.25,1.25,0,0,0,.76-.24l.7,1.23a3,3,0,0,1-1.66.47A2,2,0,0,1,228.22,325Z"/><path class="cls-18" d="M240,322.52v4.59h-1.61V322.9a1.82,1.82,0,0,0-1.87-2.07c-1,0-1.63.91-1.63,2.25v4h-1.61V316.24h1.61v3.92a2.51,2.51,0,0,1,2-.79A2.94,2.94,0,0,1,240,322.52Z"/><path class="cls-18" d="M245.05,325.74a2,2,0,0,0,1.92-1.26l1.47.5a3.57,3.57,0,0,1-3.39,2.31,3.75,3.75,0,0,1-3.64-4,3.65,3.65,0,1,1,7.27,0v.55H243A2.09,2.09,0,0,0,245.05,325.74Zm-2-3.15h4a2,2,0,0,0-4,0Z"/><path class="cls-18" d="M261,322.52v4.59h-1.61V322.9a1.82,1.82,0,0,0-1.87-2.07c-1,0-1.63.91-1.63,2.25v4H254.3V316.24h1.61v3.92a2.54,2.54,0,0,1,2-.79A2.94,2.94,0,0,1,261,322.52Z"/><path class="cls-18" d="M269.61,325.85v1.26h-.75a1.47,1.47,0,0,1-1.35-.82,2.31,2.31,0,0,1-2,1c-1.81,0-3-1-3-2.6,0-2.23,2.81-2.48,4.73-2.2v-.57c0-.39-.4-1-1.52-1a1.6,1.6,0,0,0-1.48,1l-1.43-.53a2.89,2.89,0,0,1,2.92-2.07,2.81,2.81,0,0,1,3.08,2.38V325C268.85,325.88,269.13,325.85,269.61,325.85Zm-2.33-2c-2-.26-3.15,0-3.15.86,0,1.8,3.15,1.28,3.15-.21Z"/><path class="cls-18" d="M274.81,319.38v1.48a2.39,2.39,0,0,0-.62-.08c-1.1,0-1.66.72-1.66,2.12v4.21h-1.62v-7.6h1.34l.19.76a2.08,2.08,0,0,1,2-.92A3.88,3.88,0,0,1,274.81,319.38Z"/><path class="cls-18" d="M283.09,316.2v11h-1.34l-.18-1a3.31,3.31,0,0,1-2.39,1.16,4.08,4.08,0,0,1,0-8.12,2.68,2.68,0,0,1,2.29,1.12V316.2Zm-1.62,7.11c0-1.51-.86-2.53-2.14-2.53a2.55,2.55,0,0,0,0,5.05A2.22,2.22,0,0,0,281.47,323.31Z"/><path class="cls-18" d="M295.79,319.51l-2.6,7.6H291.8l-1.73-5.25-1.75,5.25h-1.38l-2.61-7.6h1.72l1.59,5,1.58-5h1.69l1.58,5,1.58-5Z"/><path class="cls-18" d="M303.72,325.85v1.26H303a1.47,1.47,0,0,1-1.35-.82,2.31,2.31,0,0,1-2,1c-1.81,0-3-1-3-2.6,0-2.23,2.81-2.48,4.73-2.2v-.57c0-.39-.39-1-1.52-1a1.61,1.61,0,0,0-1.48,1l-1.43-.53a2.91,2.91,0,0,1,2.93-2.07A2.8,2.8,0,0,1,303,321.7V325C303,325.88,303.25,325.85,303.72,325.85Zm-2.33-2c-2-.26-3.15,0-3.15.86,0,1.8,3.15,1.28,3.15-.21Z"/><path class="cls-18" d="M308.92,319.38v1.48a2.33,2.33,0,0,0-.62-.08c-1.1,0-1.66.72-1.66,2.12v4.21H305v-7.6h1.34l.18.76a2.1,2.1,0,0,1,2-.92A3.88,3.88,0,0,1,308.92,319.38Z"/><path class="cls-18" d="M313.24,325.74a2,2,0,0,0,1.92-1.26l1.48.5a3.58,3.58,0,0,1-3.4,2.31,3.75,3.75,0,0,1-3.63-4,3.65,3.65,0,1,1,7.27,0v.55h-5.67A2.08,2.08,0,0,0,313.24,325.74Zm-2-3.15h4a2,2,0,0,0-4,0Z"/><path class="cls-18" d="M325.55,325.74a2,2,0,0,0,1.92-1.26l1.48.5a3.58,3.58,0,0,1-3.4,2.31,3.74,3.74,0,0,1-3.63-4,3.65,3.65,0,1,1,7.27,0v.55h-5.67A2.08,2.08,0,0,0,325.55,325.74Zm-2-3.15h4a2,2,0,0,0-4,0Z"/><path class="cls-18" d="M337,322.59v4.52h-1.61V323.2c0-1.63-.5-2.42-1.52-2.42s-1.66.72-1.66,2.12v4.21h-1.61v-7.6H332l.18.76a2.12,2.12,0,0,1,2-.95C335.92,319.32,337,320.59,337,322.59Z"/><path class="cls-18" d="M342.11,317.83a.92.92,0,0,0-.94,1v.64H343v1.39h-1.85v6.21h-1.62V320.9h-1.28v-1.39h1.28v-.64a2.48,2.48,0,0,1,2.54-2.59,2.55,2.55,0,0,1,1.27.32l-.7,1.38A1,1,0,0,0,342.11,317.83Z"/><path class="cls-18" d="M343.71,323.29a3.82,3.82,0,1,1,3.82,4A3.75,3.75,0,0,1,343.71,323.29Zm6,0a2.21,2.21,0,1,0-2.2,2.35A2.14,2.14,0,0,0,349.73,323.29Z"/><path class="cls-18" d="M356.69,319.38v1.48a2.47,2.47,0,0,0-.63-.08c-1.09,0-1.66.72-1.66,2.12v4.21h-1.61v-7.6h1.34l.18.76a2.11,2.11,0,0,1,2-.92A4.1,4.1,0,0,1,356.69,319.38Z"/><path class="cls-18" d="M361.19,327.25a4,4,0,0,1,0-7.91,3.57,3.57,0,0,1,3.51,2.36l-1.53.53a2,2,0,0,0-2-1.28,2.35,2.35,0,0,0,0,4.69,2,2,0,0,0,2-1.27l1.53.52A3.56,3.56,0,0,1,361.19,327.25Z"/><path class="cls-18" d="M369.62,325.74a2,2,0,0,0,1.92-1.26l1.47.5a3.57,3.57,0,0,1-3.39,2.31,3.75,3.75,0,0,1-3.64-4,3.65,3.65,0,1,1,7.27,0v.55h-5.67A2.09,2.09,0,0,0,369.62,325.74Zm-2-3.15h4a2,2,0,0,0-4,0Z"/><path class="cls-18" d="M382.09,316.2v11h-1.33l-.19-1a3.27,3.27,0,0,1-2.39,1.16,4.08,4.08,0,0,1,0-8.12,2.7,2.7,0,0,1,2.3,1.12V316.2Zm-1.61,7.11a2.24,2.24,0,0,0-2.14-2.53,2.55,2.55,0,0,0,0,5.05A2.23,2.23,0,0,0,380.48,323.31Z"/><path class="cls-18" d="M234.85,338.52a3.77,3.77,0,0,1-3.68,4.07,3,3,0,0,1-2.3-1.18v4.14h-1.61V334.72h1.34l.18,1a3.29,3.29,0,0,1,2.39-1.16A3.74,3.74,0,0,1,234.85,338.52Zm-1.61,0a2.28,2.28,0,0,0-2.22-2.45,2.21,2.21,0,0,0-2.15,2.45,2.24,2.24,0,0,0,2.15,2.53A2.3,2.3,0,0,0,233.24,338.52Z"/><path class="cls-18" d="M243.1,341.07v1.26h-.75a1.48,1.48,0,0,1-1.35-.82,2.32,2.32,0,0,1-2,1c-1.81,0-3-1-3-2.6,0-2.24,2.82-2.48,4.73-2.21v-.56c0-.4-.39-1-1.52-1a1.6,1.6,0,0,0-1.48,1l-1.42-.53a2.89,2.89,0,0,1,2.92-2.07,2.8,2.8,0,0,1,3.07,2.37v3.33C242.34,341.1,242.63,341.07,243.1,341.07Zm-2.33-2c-2-.26-3.15,0-3.15.87,0,1.79,3.15,1.28,3.15-.21Z"/><path class="cls-18" d="M250.52,334.72l-3.08,9.07a2.44,2.44,0,0,1-3.09,1.64,1.86,1.86,0,0,1-1-.93l1-.83a.85.85,0,0,0,.72.56c.58,0,.87-.33,1.24-1.43l.17-.47h-.33l-2.59-7.61h1.71l1.78,5.36,1.85-5.36Z"/><path class="cls-18" d="M262.23,337.81v4.52h-1.62v-3.91c0-1.71-.41-2.42-1.37-2.42s-1.5.65-1.5,2.11v4.22h-1.61v-3.91c0-1.71-.42-2.42-1.37-2.42s-1.51.65-1.51,2.11v4.22h-1.61v-7.61H253l.18.76a2.27,2.27,0,0,1,3.94.46,2.59,2.59,0,0,1,2.43-1.4C261.27,334.54,262.23,335.71,262.23,337.81Z"/><path class="cls-18" d="M267.26,341a2,2,0,0,0,1.92-1.26l1.48.5a3.58,3.58,0,0,1-3.4,2.31,3.74,3.74,0,0,1-3.63-4,3.65,3.65,0,1,1,7.27,0V339h-5.68A2.09,2.09,0,0,0,267.26,341Zm-2-3.15h4a2,2,0,0,0-4,0Z"/><path class="cls-18" d="M278.75,337.81v4.52h-1.61v-3.91c0-1.63-.5-2.42-1.52-2.42s-1.66.71-1.66,2.11v4.22h-1.61v-7.61h1.33l.19.76a2.13,2.13,0,0,1,2-.94C277.62,334.54,278.75,335.8,278.75,337.81Z"/><path class="cls-18" d="M280.91,340.23v-4.11h-1.22v-1.4a1.16,1.16,0,0,0,1.3-1.2v-1.19h1.53v2.39h1.42v1.4h-1.42v3.8c0,.83.2,1.13.74,1.13a1.3,1.3,0,0,0,.76-.24l.7,1.23a3.12,3.12,0,0,1-1.66.47A2,2,0,0,1,280.91,340.23Z"/><path class="cls-18" d="M290.39,341.81a2.78,2.78,0,0,1-.9-2.19h1.57c-.11.85.5,1.41,1.52,1.41s1.48-.33,1.48-.82-.52-.73-2.39-1.18c-1.35-.34-1.92-1-1.92-2.19,0-1.4,1.1-2.3,2.79-2.3a2.61,2.61,0,0,1,2.89,2.16l-1.39.45a1.33,1.33,0,0,0-1.47-1.15c-.8,0-1.28.33-1.28.87s.18.73.79.89c2.71.75,3.51,1,3.51,2.45s-1.23,2.3-2.95,2.3A3.42,3.42,0,0,1,290.39,341.81Z"/><path class="cls-18" d="M304,334.72l-3.09,9.07a2.44,2.44,0,0,1-3.09,1.64,1.86,1.86,0,0,1-1-.93l1-.83a.85.85,0,0,0,.72.56c.58,0,.87-.33,1.25-1.43l.16-.47h-.33l-2.59-7.61h1.71l1.78,5.36,1.85-5.36Z"/><path class="cls-18" d="M305.77,341.81a2.74,2.74,0,0,1-.89-2.19h1.56c-.1.85.51,1.41,1.53,1.41s1.47-.33,1.47-.82-.52-.73-2.39-1.18c-1.35-.34-1.91-1-1.91-2.19,0-1.4,1.09-2.3,2.78-2.3a2.61,2.61,0,0,1,2.89,2.16l-1.38.45A1.33,1.33,0,0,0,308,336c-.79,0-1.28.33-1.28.87s.19.73.79.89c2.71.75,3.52,1,3.52,2.45s-1.23,2.3-3,2.3A3.43,3.43,0,0,1,305.77,341.81Z"/><path class="cls-18" d="M313,340.23v-4.11h-1.22v-1.4a1.16,1.16,0,0,0,1.3-1.2v-1.19h1.53v2.39H316v1.4h-1.42v3.8c0,.83.2,1.13.73,1.13a1.25,1.25,0,0,0,.76-.24l.7,1.23a3.06,3.06,0,0,1-1.65.47A2,2,0,0,1,313,340.23Z"/><path class="cls-18" d="M320.91,341a2,2,0,0,0,1.92-1.26l1.48.5a3.58,3.58,0,0,1-3.4,2.31,3.74,3.74,0,0,1-3.63-4,3.65,3.65,0,1,1,7.27,0V339h-5.68A2.09,2.09,0,0,0,320.91,341Zm-2-3.15h4a2,2,0,0,0-4,0Z"/><path class="cls-18" d="M336.58,337.81v4.52H335v-3.91c0-1.71-.41-2.42-1.37-2.42s-1.5.65-1.5,2.11v4.22h-1.62v-3.91c0-1.71-.41-2.42-1.37-2.42s-1.5.65-1.5,2.11v4.22H326v-7.61h1.33l.19.76a2.27,2.27,0,0,1,3.94.46,2.59,2.59,0,0,1,2.43-1.4C335.63,334.54,336.58,335.71,336.58,337.81Z"/><path class="cls-18" d="M48.69,325.09a9,9,0,0,1-9.23,9.23H33.87v11.6H28.29V315.85H39.46A9,9,0,0,1,48.69,325.09Zm-5.15,0A3.94,3.94,0,0,0,39.33,321H33.87v8.16h5.46A3.94,3.94,0,0,0,43.54,325.09Z"/><path class="cls-18" d="M58.7,334v11.9H53.21V315.85H58.7V329H72.11v-13.1H77.6v30.07H72.11V334Z"/><path class="cls-18" d="M82.16,330.89c0-8.85,6.27-15.55,15-15.55s15,6.7,15,15.55-6.27,15.55-15,15.55S82.16,339.74,82.16,330.89Zm24.48,0c0-5.76-3.86-10-9.45-10s-9.45,4.21-9.45,10,3.87,10,9.45,10S106.64,336.64,106.64,330.89Z"/><path class="cls-18" d="M145.05,315.85v30.07h-5.63L123,324v21.95h-5.58V315.85H124l15.5,20.92V315.85Z"/><path class="cls-18" d="M149.6,330.89c0-8.85,6.28-15.55,15-15.55s15,6.7,15,15.55-6.27,15.55-15,15.55S149.6,339.74,149.6,330.89Zm24.49,0c0-5.76-3.87-10-9.45-10s-9.45,4.21-9.45,10,3.86,10,9.45,10S174.09,336.64,174.09,330.89Z"/><path class="cls-18" d="M212.49,315.85v30.07h-5.62L190.46,324v21.95h-5.59V315.85h6.53l15.51,20.92V315.85Z"/></svg>