<svg id="Layer_1" data-name="Layer 1" xmlns="http://www.w3.org/2000/svg" xmlns:xlink="http://www.w3.org/1999/xlink" viewBox="0 0 408.69 388.63"><defs><style>.cls-1{fill:none;}.cls-2{fill:#fff;}.cls-3{clip-path:url(#clip-path);}.cls-4{fill:#8f8f8f;}.cls-5{fill:#4d4d4d;}.cls-6{fill:#6ccef5;}.cls-7{fill:#00efb6;}.cls-8{fill:#ffa7ff;}.cls-9{clip-path:url(#clip-path-3);}.cls-10{fill:url(#linear-gradient);}.cls-11{clip-path:url(#clip-path-4);}.cls-12{fill:url(#linear-gradient-2);}.cls-13{clip-path:url(#clip-path-5);}.cls-14{fill:url(#linear-gradient-3);}.cls-15{clip-path:url(#clip-path-6);}.cls-16{fill:url(#linear-gradient-4);}.cls-17{clip-path:url(#clip-path-7);}.cls-18{fill:url(#linear-gradient-5);}</style><clipPath id="clip-path"><rect class="cls-1" x="-0.23" y="-72.49" width="409.12" height="409.12"/></clipPath><clipPath id="clip-path-3"><path class="cls-1" d="M210,40.94,152.2,255h0c21.65,7.83,41.12-4.86,48.31-31.48L258.27,9.45A36.66,36.66,0,0,0,245.8,7.16c-16.38,0-30.07,12.39-35.84,33.78"/></clipPath><linearGradient id="linear-gradient" x1="97.33" y1="-824.93" x2="97.73" y2="-824.93" gradientTransform="matrix(0, 776.89, 776.89, 0, 641081.48, -75640)" gradientUnits="userSpaceOnUse"><stop offset="0" stop-color="#ffa7ff"/><stop offset="0.5" stop-color="#6ccef5"/><stop offset="1" stop-color="#00efb6"/></linearGradient><clipPath id="clip-path-4"><path class="cls-1" d="M271.88,62.66l-40,148.42.06,0c21.62,7.83,41.06-4.84,48.23-31.42L320.18,31.25a36.54,36.54,0,0,0-12.52-2.31c-16.35,0-30,12.37-35.78,33.72"/></clipPath><linearGradient id="linear-gradient-2" x1="97.33" y1="-824.97" x2="97.73" y2="-824.97" gradientTransform="matrix(0, 776.89, 776.89, 0, 641189.94, -75718.25)" xlink:href="#linear-gradient"/><clipPath id="clip-path-5"><path class="cls-1" d="M130.33,84.14l-40,148.41h0c21.65,7.83,41.12-4.86,48.31-31.49l40.05-148.4h0a36.49,36.49,0,0,0-12.48-2.3c-16.38,0-30.07,12.4-35.84,33.78"/></clipPath><linearGradient id="linear-gradient-3" x1="97.33" y1="-824.88" x2="97.73" y2="-824.88" gradientTransform="matrix(0, 776.89, 776.89, 0, 640974.01, -75562.36)" xlink:href="#linear-gradient"/><clipPath id="clip-path-6"><path class="cls-1" d="M45.77,145.61,28.38,210.05C50,217.89,69.5,205.2,76.69,178.57l17.39-64.44a36.7,36.7,0,0,0-12.47-2.29c-16.38,0-30.07,12.39-35.84,33.77"/></clipPath><linearGradient id="linear-gradient-4" x1="97.33" y1="-824.81" x2="97.73" y2="-824.81" gradientTransform="matrix(0, 776.89, 776.89, 0, 640849.9, -75475.09)" xlink:href="#linear-gradient"/><clipPath id="clip-path-7"><path class="cls-1" d="M333.79,85.1l-17.41,64.52.07,0c21.61,7.82,41.05-4.85,48.23-31.43l17.41-64.52-.07,0a36.55,36.55,0,0,0-12.45-2.29c-16.35,0-30,12.37-35.78,33.72"/></clipPath><linearGradient id="linear-gradient-5" x1="97.33" y1="-825.04" x2="97.73" y2="-825.04" gradientTransform="matrix(0, 776.89, 776.89, 0, 641314.09, -75805.35)" xlink:href="#linear-gradient"/></defs><path class="cls-2" d="M67.9,321.7c0,10.14-7.44,17.58-17.58,17.58H39.7v22.07H29.07V304.13H50.32C60.46,304.13,67.9,311.57,67.9,321.7Zm-9.81,0c0-4.66-3.27-7.76-8-7.76H39.7v15.53H50.08C54.82,329.47,58.09,326.36,58.09,321.7Z"/><path class="cls-2" d="M86.94,338.7v22.65H76.48V304.13H86.94v24.93h25.51V304.13h10.46v57.22H112.45V338.7Z"/><path class="cls-2" d="M131.58,332.74c0-16.84,11.93-29.59,28.61-29.59s28.61,12.75,28.61,29.59-11.94,29.59-28.61,29.59S131.58,349.57,131.58,332.74Zm46.59,0c0-11-7.36-19-18-19s-18,8-18,19,7.36,19,18,19S178.17,343.69,178.17,332.74Z"/><path class="cls-2" d="M251.25,304.13v57.22H240.54l-31.23-41.77v41.77H198.69V304.13h12.42l29.51,39.8v-39.8Z"/><path class="cls-2" d="M259.91,332.74c0-16.84,11.94-29.59,28.61-29.59s28.61,12.75,28.61,29.59-11.93,29.59-28.61,29.59S259.91,349.57,259.91,332.74Zm46.6,0c0-11-7.36-19-18-19s-18,8-18,19,7.36,19,18,19S306.51,343.69,306.51,332.74Z"/><path class="cls-2" d="M379.58,304.13v57.22h-10.7l-31.23-41.77v41.77H327V304.13h12.43L369,343.93v-39.8Z"/><g class="cls-3"><path class="cls-4" d="M133.75,108.46v0Z"/><polygon class="cls-5" points="178.64 219.35 152.2 254.99 152.21 88.3 178.65 52.66 178.64 219.35"/><polygon class="cls-5" points="116.73 196.91 90.28 232.55 67.64 149.77 94.08 114.13 116.73 196.91"/><path class="cls-4" d="M258.63,81.8v0Z"/><polygon class="cls-5" points="258.27 175.44 231.83 211.08 231.83 45.09 258.27 9.45 258.27 175.44"/><polygon class="cls-5" points="342.89 114 316.45 149.64 293.73 66.89 320.18 31.25 342.89 114"/><g class="cls-3"><path class="cls-6" d="M152.2,255h0L210,40.94c7.19-26.63,26.66-39.32,48.31-31.49L200.51,223.51c-7.19,26.62-26.66,39.31-48.31,31.48"/><path class="cls-7" d="M231.89,211.1l-.06,0,40-148.42c7.19-26.62,26.66-39.28,48.3-31.41h0L280.12,179.68c-7.17,26.58-26.61,39.25-48.23,31.42"/><path class="cls-8" d="M90.29,232.55h0l40-148.41c7.19-26.63,26.67-39.32,48.32-31.48L138.6,201.06c-7.19,26.63-26.66,39.32-48.31,31.49"/><path class="cls-8" d="M28.38,210.05h0l17.39-64.44C53,119,72.43,106.29,94.08,114.13L76.69,178.57C69.5,205.2,50,217.89,28.38,210.05"/><path class="cls-7" d="M316.45,149.64l-.07,0L333.79,85.1C341,58.52,360.41,45.85,382,53.67l.07,0-17.41,64.52c-7.18,26.58-26.62,39.25-48.23,31.43"/></g><g class="cls-9"><rect class="cls-10" x="69.34" y="57.29" width="271.79" height="155.41" transform="translate(31.66 308.82) rotate(-78.38)"/></g><g class="cls-11"><rect class="cls-12" x="174.06" y="61.53" width="203.89" height="124.81" transform="translate(99.01 369.31) rotate(-78.38)"/></g><g class="cls-13"><rect class="cls-14" x="32.5" y="82.96" width="203.93" height="124.83" transform="translate(-35.02 247.79) rotate(-78.38)"/></g><g class="cls-15"><rect class="cls-16" x="2.67" y="122" width="117.12" height="85.72" transform="translate(-112.59 191.62) rotate(-78.38)"/></g><g class="cls-17"><rect class="cls-18" x="290.66" y="61.56" width="117.14" height="85.73" transform="translate(176.6 425.46) rotate(-78.38)"/></g></g></svg>