<svg id="Layer_1" data-name="Layer 1" xmlns="http://www.w3.org/2000/svg" viewBox="0 0 1024 1024"><defs><style>.cls-1{fill:#010101;}</style></defs><polygon class="cls-1" points="329.61 452.5 329.64 452.66 334.54 451.68 334.51 451.5 334.32 451.54 334.28 451.38 329.38 452.37 329.42 452.54 329.61 452.5"/><path class="cls-1" d="M909.34,475.58c-9.4,34.81-27.79,60.86-51.79,73.35-18.11,9.44-38.83,10.85-60.07,4.13l5-18.51-.44.59,35.23-130.58.16.56,4.48-16.61-.09-.32c9.84-31.66,27.43-55.34,50-67.07,18.1-9.43,38.83-10.83,60.12-4.11L924.79,418.07a3.42,3.42,0,0,0-.12.7Zm-153.12-67-4.52,16.48.06.24-55.33,205c-9.39,34.81-27.78,60.86-51.78,73.35-18.2,9.47-39,10.86-60.33,4L684.11,338c9.4-34.83,27.81-60.89,51.84-73.38,18.18-9.44,39-10.82,60.27-4l-40,148.15ZM383.8,818.3l144.39-535c9.41-34.88,27.83-61,51.87-73.49,18.12-9.43,38.83-10.86,60.06-4.18l-5.22,19,.53-.71L496,740.71c-9.41,34.87-27.84,61-51.88,73.49C425.92,823.66,405.12,825.07,383.8,818.3ZM228,761.83l5-18.52-.17.24,35.08-130,.06.2,4.49-16.64-.06-.2,55.28-204.85c9.41-34.87,27.84-61,51.88-73.49,17.66-9.19,37.79-10.75,58.45-4.64L438,314l1.85.66L340.08,684.2c-9.41,34.88-27.83,61-51.88,73.49C270.05,767.13,249.29,768.55,228,761.83ZM72.1,705.18l1.57-6.1,41.08-152.23c9.41-34.88,27.84-61,51.88-73.49,18.18-9.46,39-10.87,60.29-4.11L184.2,627.56c-9.41,34.87-27.84,61-51.88,73.49C114.16,710.51,93.39,711.92,72.1,705.18Zm120.51-75.35,39.61-146.77,31.16,113.87L222.61,748,191.43,634C191.84,632.62,192.23,631.24,192.61,629.83ZM440.78,344.54l0,229.24L382.89,788.23V559Zm200.49-108.8V463.26L583.41,677.68V450.16Zm160.26,38.61,31.22,113.73c-.4,1.36-.79,2.74-1.17,4.13L792,538.93,760.8,425.3Z"/></svg>