<svg id="Layer_1" data-name="Layer 1" xmlns="http://www.w3.org/2000/svg" xmlns:xlink="http://www.w3.org/1999/xlink" viewBox="0 0 408.69 120.01"><defs><style>.cls-1{fill:none;}.cls-2{clip-path:url(#clip-path);}</style><clipPath id="clip-path"><rect class="cls-1" width="120.01" height="120.01"/></clipPath></defs><path d="M161.14,49.86a12.48,12.48,0,0,1-12.86,12.86h-7.77V78.86h-7.78V37h15.55A12.47,12.47,0,0,1,161.14,49.86Zm-7.18,0a5.48,5.48,0,0,0-5.86-5.68h-7.59V55.54h7.59A5.48,5.48,0,0,0,154,49.86Z"/><path d="M175.07,62.3V78.86h-7.65V37h7.65V55.24h18.66V37h7.65V78.86h-7.65V62.3Z"/><path d="M207.72,57.93c0-12.32,8.73-21.64,20.93-21.64s20.93,9.32,20.93,21.64-8.73,21.65-20.93,21.65S207.72,70.25,207.72,57.93Zm34.09,0c0-8-5.39-13.87-13.16-13.87s-13.16,5.86-13.16,13.87,5.39,13.88,13.16,13.88S241.81,66,241.81,57.93Z"/><path d="M295.26,37V78.86h-7.83L264.59,48.3V78.86h-7.78V37h9.09l21.59,29.13V37Z"/><path d="M301.6,57.93c0-12.32,8.73-21.64,20.93-21.64s20.93,9.32,20.93,21.64-8.73,21.65-20.93,21.65S301.6,70.25,301.6,57.93Zm34.09,0c0-8-5.39-13.87-13.16-13.87s-13.15,5.86-13.15,13.87,5.38,13.88,13.15,13.88S335.69,66,335.69,57.93Z"/><path d="M389.15,37V78.86h-7.84L358.47,48.3V78.86h-7.78V37h9.09l21.59,29.13V37Z"/><g class="cls-2"><polygon points="39.13 54.38 39.14 54.4 39.71 54.29 39.71 54.27 39.69 54.27 39.68 54.25 39.11 54.37 39.11 54.39 39.13 54.38"/><g class="cls-2"><path d="M107.08,57.09c-1.1,4.08-3.26,7.13-6.07,8.6a9,9,0,0,1-7,.48L94.55,64l0,.07,4.13-15.3,0,.06.52-1.94v0c1.16-3.71,3.22-6.49,5.86-7.86a9,9,0,0,1,7-.48l-3.18,11.84s0,0,0,.08Zm-18-7.85-.53,1.93v0l-6.49,24c-1.1,4.08-3.25,7.13-6.06,8.6A9,9,0,0,1,69,84.3L80.68,41c1.1-4.08,3.26-7.14,6.08-8.6a9,9,0,0,1,7.06-.47L89.13,49.25Zm-43.64,48L62.41,34.55c1.1-4.09,3.26-7.14,6.08-8.61a9,9,0,0,1,7-.49l-.62,2.23L75,27.6,58.63,88.16c-1.1,4.09-3.26,7.15-6.08,8.62a9.09,9.09,0,0,1-7.06.48M27.23,90.64l.58-2.17,0,0L31.9,73.26v0l.53-2v0l6.48-24c1.1-4.09,3.26-7.14,6.08-8.61a9,9,0,0,1,6.85-.55v0l.22.07L40.36,81.54c-1.1,4.09-3.26,7.15-6.08,8.61a9,9,0,0,1-7,.49M9,84l.19-.72L14,65.44c1.11-4.08,3.27-7.14,6.08-8.61a9.07,9.07,0,0,1,7.07-.48l-5,18.55C21,79,18.83,82.05,16,83.51A9,9,0,0,1,9,84m14.13-8.83L27.72,58l3.65,13.34L26.59,89,22.94,75.66c0-.16.09-.33.14-.49M52.16,41.73V68.6L45.38,93.73V66.86ZM75.66,29V55.65L68.88,80.78V54.11Zm18.78,4.53L98.1,46.84c0,.15-.09.32-.14.48L93.32,64.51,89.67,51.2Z"/></g></g></svg>