<svg id="Layer_1" data-name="Layer 1" xmlns="http://www.w3.org/2000/svg" xmlns:xlink="http://www.w3.org/1999/xlink" viewBox="0 0 408.69 389.7"><defs><style>.cls-1{fill:none;}.cls-2{clip-path:url(#clip-path);}</style><clipPath id="clip-path"><rect class="cls-1" x="-0.23" y="-72.49" width="409.12" height="409.12"/></clipPath></defs><g class="cls-2"><polygon points="133.18 112.9 133.19 112.97 135.15 112.58 135.13 112.51 135.06 112.52 135.04 112.46 133.09 112.85 133.1 112.92 133.18 112.9"/><g class="cls-2"><path d="M364.8,122.12C361,136,353.69,146.44,344.11,151.43c-7.24,3.77-15.52,4.33-24,1.65l2-7.4-.17.24L336,93.75l.07.22,1.79-6.63,0-.13c3.93-12.65,11-22.11,20-26.8,7.23-3.76,15.52-4.32,24-1.64L371,99.15a1.26,1.26,0,0,0-.05.28ZM303.62,95.37,301.81,102l0,.1L279.73,184c-3.75,13.91-11.1,24.32-20.68,29.31-7.27,3.78-15.59,4.34-24.11,1.61L274.81,67.14c3.76-13.91,11.11-24.33,20.71-29.31,7.27-3.78,15.57-4.33,24.08-1.61l-16,59.19ZM154.83,259.05,212.52,45.29c3.76-13.93,11.12-24.36,20.72-29.36,7.24-3.76,15.52-4.33,24-1.67l-2.09,7.61.21-.29L199.64,228.05c-3.76,13.94-11.12,24.36-20.73,29.36-7.25,3.78-15.56,4.34-24.08,1.64M92.59,236.49l2-7.4-.07.1,14-51.94,0,.08,1.8-6.65,0-.08,22.08-81.84c3.76-13.93,11.12-24.36,20.73-29.36,7.05-3.68,15.1-4.3,23.35-1.86l0,0,.74.26L137.36,205.48c-3.76,13.93-11.12,24.36-20.72,29.35-7.26,3.78-15.55,4.35-24,1.66M30.3,213.86l.62-2.44L47.34,150.6c3.76-13.93,11.12-24.36,20.72-29.36,7.27-3.78,15.58-4.35,24.09-1.64L75.08,182.85C71.32,196.78,64,207.21,54.36,212.21,47.1,216,38.8,216.55,30.3,213.86m48.14-30.11,15.83-58.64,12.45,45.5L90.43,231,78,185.42c.16-.55.32-1.11.47-1.67m99.15-114v91.59L154.46,247V155.45ZM257.7,26.3v90.9l-23.11,85.67V112Zm64,15.43L334.2,87.17c-.16.54-.32,1.09-.47,1.64l-15.82,58.63L305.45,102Z"/></g></g><path d="M228.22,325V320.9H227v-1.39a1.17,1.17,0,0,0,1.3-1.21v-1.18h1.53v2.39h1.42v1.39h-1.42v3.81c0,.82.2,1.12.73,1.12a1.25,1.25,0,0,0,.76-.24l.7,1.23a3,3,0,0,1-1.66.47A2,2,0,0,1,228.22,325Z"/><path d="M240,322.52v4.59h-1.61V322.9a1.82,1.82,0,0,0-1.87-2.07c-1,0-1.63.91-1.63,2.25v4h-1.61V316.24h1.61v3.92a2.51,2.51,0,0,1,2-.79A2.94,2.94,0,0,1,240,322.52Z"/><path d="M245.05,325.74a2,2,0,0,0,1.92-1.26l1.47.5a3.57,3.57,0,0,1-3.39,2.31,3.75,3.75,0,0,1-3.64-4,3.65,3.65,0,1,1,7.27,0v.55H243A2.09,2.09,0,0,0,245.05,325.74Zm-2-3.15h4a2,2,0,0,0-4,0Z"/><path d="M261,322.52v4.59h-1.61V322.9a1.82,1.82,0,0,0-1.87-2.07c-1,0-1.63.91-1.63,2.25v4H254.3V316.24h1.61v3.92a2.54,2.54,0,0,1,2-.79A2.94,2.94,0,0,1,261,322.52Z"/><path d="M269.61,325.85v1.26h-.75a1.47,1.47,0,0,1-1.35-.82,2.31,2.31,0,0,1-2,1c-1.81,0-3-1-3-2.6,0-2.23,2.81-2.48,4.73-2.2v-.57c0-.39-.4-1-1.52-1a1.6,1.6,0,0,0-1.48,1l-1.43-.53a2.89,2.89,0,0,1,2.92-2.07,2.81,2.81,0,0,1,3.08,2.38V325C268.85,325.88,269.13,325.85,269.61,325.85Zm-2.33-2c-2-.26-3.15,0-3.15.86,0,1.8,3.15,1.28,3.15-.21Z"/><path d="M274.81,319.38v1.48a2.39,2.39,0,0,0-.62-.08c-1.1,0-1.66.72-1.66,2.12v4.21h-1.62v-7.6h1.34l.19.76a2.08,2.08,0,0,1,2-.92A3.88,3.88,0,0,1,274.81,319.38Z"/><path d="M283.09,316.2v11h-1.34l-.18-1a3.31,3.31,0,0,1-2.39,1.16,4.08,4.08,0,0,1,0-8.12,2.68,2.68,0,0,1,2.29,1.12V316.2Zm-1.62,7.11c0-1.51-.86-2.53-2.14-2.53a2.55,2.55,0,0,0,0,5.05A2.22,2.22,0,0,0,281.47,323.31Z"/><path d="M295.79,319.51l-2.6,7.6H291.8l-1.73-5.25-1.75,5.25h-1.38l-2.61-7.6h1.72l1.59,5,1.58-5h1.69l1.58,5,1.58-5Z"/><path d="M303.72,325.85v1.26H303a1.47,1.47,0,0,1-1.35-.82,2.31,2.31,0,0,1-2,1c-1.81,0-3-1-3-2.6,0-2.23,2.81-2.48,4.73-2.2v-.57c0-.39-.39-1-1.52-1a1.61,1.61,0,0,0-1.48,1l-1.43-.53a2.91,2.91,0,0,1,2.93-2.07A2.8,2.8,0,0,1,303,321.7V325C303,325.88,303.25,325.85,303.72,325.85Zm-2.33-2c-2-.26-3.15,0-3.15.86,0,1.8,3.15,1.28,3.15-.21Z"/><path d="M308.92,319.38v1.48a2.33,2.33,0,0,0-.62-.08c-1.1,0-1.66.72-1.66,2.12v4.21H305v-7.6h1.34l.18.76a2.1,2.1,0,0,1,2-.92A3.88,3.88,0,0,1,308.92,319.38Z"/><path d="M313.24,325.74a2,2,0,0,0,1.92-1.26l1.48.5a3.58,3.58,0,0,1-3.4,2.31,3.75,3.75,0,0,1-3.63-4,3.65,3.65,0,1,1,7.27,0v.55h-5.67A2.08,2.08,0,0,0,313.24,325.74Zm-2-3.15h4a2,2,0,0,0-4,0Z"/><path d="M325.55,325.74a2,2,0,0,0,1.92-1.26l1.48.5a3.58,3.58,0,0,1-3.4,2.31,3.74,3.74,0,0,1-3.63-4,3.65,3.65,0,1,1,7.27,0v.55h-5.67A2.08,2.08,0,0,0,325.55,325.74Zm-2-3.15h4a2,2,0,0,0-4,0Z"/><path d="M337,322.59v4.52h-1.61V323.2c0-1.63-.5-2.42-1.52-2.42s-1.66.72-1.66,2.12v4.21h-1.61v-7.6H332l.18.76a2.12,2.12,0,0,1,2-.95C335.92,319.32,337,320.59,337,322.59Z"/><path d="M342.11,317.83a.92.92,0,0,0-.94,1v.64H343v1.39h-1.85v6.21h-1.62V320.9h-1.28v-1.39h1.28v-.64a2.48,2.48,0,0,1,2.54-2.59,2.55,2.55,0,0,1,1.27.32l-.7,1.38A1,1,0,0,0,342.11,317.83Z"/><path d="M343.71,323.29a3.82,3.82,0,1,1,3.82,4A3.75,3.75,0,0,1,343.71,323.29Zm6,0a2.21,2.21,0,1,0-2.2,2.35A2.14,2.14,0,0,0,349.73,323.29Z"/><path d="M356.69,319.38v1.48a2.47,2.47,0,0,0-.63-.08c-1.09,0-1.66.72-1.66,2.12v4.21h-1.61v-7.6h1.34l.18.76a2.11,2.11,0,0,1,2-.92A4.1,4.1,0,0,1,356.69,319.38Z"/><path d="M361.19,327.25a4,4,0,0,1,0-7.91,3.57,3.57,0,0,1,3.51,2.36l-1.53.53a2,2,0,0,0-2-1.28,2.35,2.35,0,0,0,0,4.69,2,2,0,0,0,2-1.27l1.53.52A3.56,3.56,0,0,1,361.19,327.25Z"/><path d="M369.62,325.74a2,2,0,0,0,1.92-1.26l1.47.5a3.57,3.57,0,0,1-3.39,2.31,3.75,3.75,0,0,1-3.64-4,3.65,3.65,0,1,1,7.27,0v.55h-5.67A2.09,2.09,0,0,0,369.62,325.74Zm-2-3.15h4a2,2,0,0,0-4,0Z"/><path d="M382.09,316.2v11h-1.33l-.19-1a3.27,3.27,0,0,1-2.39,1.16,4.08,4.08,0,0,1,0-8.12,2.7,2.7,0,0,1,2.3,1.12V316.2Zm-1.61,7.11a2.24,2.24,0,0,0-2.14-2.53,2.55,2.55,0,0,0,0,5.05A2.23,2.23,0,0,0,380.48,323.31Z"/><path d="M234.85,338.52a3.77,3.77,0,0,1-3.68,4.07,3,3,0,0,1-2.3-1.18v4.14h-1.61V334.72h1.34l.18,1a3.29,3.29,0,0,1,2.39-1.16A3.74,3.74,0,0,1,234.85,338.52Zm-1.61,0a2.28,2.28,0,0,0-2.22-2.45,2.21,2.21,0,0,0-2.15,2.45,2.24,2.24,0,0,0,2.15,2.53A2.3,2.3,0,0,0,233.24,338.52Z"/><path d="M243.1,341.07v1.26h-.75a1.48,1.48,0,0,1-1.35-.82,2.32,2.32,0,0,1-2,1c-1.81,0-3-1-3-2.6,0-2.24,2.82-2.48,4.73-2.21v-.56c0-.4-.39-1-1.52-1a1.6,1.6,0,0,0-1.48,1l-1.42-.53a2.89,2.89,0,0,1,2.92-2.07,2.8,2.8,0,0,1,3.07,2.37v3.33C242.34,341.1,242.63,341.07,243.1,341.07Zm-2.33-2c-2-.26-3.15,0-3.15.87,0,1.79,3.15,1.28,3.15-.21Z"/><path d="M250.52,334.72l-3.08,9.07a2.44,2.44,0,0,1-3.09,1.64,1.86,1.86,0,0,1-1-.93l1-.83a.85.85,0,0,0,.72.56c.58,0,.87-.33,1.24-1.43l.17-.47h-.33l-2.59-7.61h1.71l1.78,5.36,1.85-5.36Z"/><path d="M262.23,337.81v4.52h-1.62v-3.91c0-1.71-.41-2.42-1.37-2.42s-1.5.65-1.5,2.11v4.22h-1.61v-3.91c0-1.71-.42-2.42-1.37-2.42s-1.51.65-1.51,2.11v4.22h-1.61v-7.61H253l.18.76a2.27,2.27,0,0,1,3.94.46,2.59,2.59,0,0,1,2.43-1.4C261.27,334.54,262.23,335.71,262.23,337.81Z"/><path d="M267.26,341a2,2,0,0,0,1.92-1.26l1.48.5a3.58,3.58,0,0,1-3.4,2.31,3.74,3.74,0,0,1-3.63-4,3.65,3.65,0,1,1,7.27,0V339h-5.68A2.09,2.09,0,0,0,267.26,341Zm-2-3.15h4a2,2,0,0,0-4,0Z"/><path d="M278.75,337.81v4.52h-1.61v-3.91c0-1.63-.5-2.42-1.52-2.42s-1.66.71-1.66,2.11v4.22h-1.61v-7.61h1.33l.19.76a2.13,2.13,0,0,1,2-.94C277.62,334.54,278.75,335.8,278.75,337.81Z"/><path d="M280.91,340.23v-4.11h-1.22v-1.4a1.16,1.16,0,0,0,1.3-1.2v-1.19h1.53v2.39h1.42v1.4h-1.42v3.8c0,.83.2,1.13.74,1.13a1.3,1.3,0,0,0,.76-.24l.7,1.23a3.12,3.12,0,0,1-1.66.47A2,2,0,0,1,280.91,340.23Z"/><path d="M290.39,341.81a2.78,2.78,0,0,1-.9-2.19h1.57c-.11.85.5,1.41,1.52,1.41s1.48-.33,1.48-.82-.52-.73-2.39-1.18c-1.35-.34-1.92-1-1.92-2.19,0-1.4,1.1-2.3,2.79-2.3a2.61,2.61,0,0,1,2.89,2.16l-1.39.45a1.33,1.33,0,0,0-1.47-1.15c-.8,0-1.28.33-1.28.87s.18.73.79.89c2.71.75,3.51,1,3.51,2.45s-1.23,2.3-2.95,2.3A3.42,3.42,0,0,1,290.39,341.81Z"/><path d="M304,334.72l-3.09,9.07a2.44,2.44,0,0,1-3.09,1.64,1.86,1.86,0,0,1-1-.93l1-.83a.85.85,0,0,0,.72.56c.58,0,.87-.33,1.25-1.43l.16-.47h-.33l-2.59-7.61h1.71l1.78,5.36,1.85-5.36Z"/><path d="M305.77,341.81a2.74,2.74,0,0,1-.89-2.19h1.56c-.1.85.51,1.41,1.53,1.41s1.47-.33,1.47-.82-.52-.73-2.39-1.18c-1.35-.34-1.91-1-1.91-2.19,0-1.4,1.09-2.3,2.78-2.3a2.61,2.61,0,0,1,2.89,2.16l-1.38.45A1.33,1.33,0,0,0,308,336c-.79,0-1.28.33-1.28.87s.19.73.79.89c2.71.75,3.52,1,3.52,2.45s-1.23,2.3-3,2.3A3.43,3.43,0,0,1,305.77,341.81Z"/><path d="M313,340.23v-4.11h-1.22v-1.4a1.16,1.16,0,0,0,1.3-1.2v-1.19h1.53v2.39H316v1.4h-1.42v3.8c0,.83.2,1.13.73,1.13a1.25,1.25,0,0,0,.76-.24l.7,1.23a3.06,3.06,0,0,1-1.65.47A2,2,0,0,1,313,340.23Z"/><path d="M320.91,341a2,2,0,0,0,1.92-1.26l1.48.5a3.58,3.58,0,0,1-3.4,2.31,3.74,3.74,0,0,1-3.63-4,3.65,3.65,0,1,1,7.27,0V339h-5.68A2.09,2.09,0,0,0,320.91,341Zm-2-3.15h4a2,2,0,0,0-4,0Z"/><path d="M336.58,337.81v4.52H335v-3.91c0-1.71-.41-2.42-1.37-2.42s-1.5.65-1.5,2.11v4.22h-1.62v-3.91c0-1.71-.41-2.42-1.37-2.42s-1.5.65-1.5,2.11v4.22H326v-7.61h1.33l.19.76a2.27,2.27,0,0,1,3.94.46,2.59,2.59,0,0,1,2.43-1.4C335.63,334.54,336.58,335.71,336.58,337.81Z"/><path d="M48.69,325.09a9,9,0,0,1-9.23,9.23H33.87v11.6H28.29V315.85H39.46A9,9,0,0,1,48.69,325.09Zm-5.15,0A3.94,3.94,0,0,0,39.33,321H33.87v8.16h5.46A3.94,3.94,0,0,0,43.54,325.09Z"/><path d="M58.7,334v11.9H53.21V315.85H58.7V329H72.11v-13.1H77.6v30.07H72.11V334Z"/><path d="M82.16,330.89c0-8.85,6.27-15.55,15-15.55s15,6.7,15,15.55-6.27,15.55-15,15.55S82.16,339.74,82.16,330.89Zm24.48,0c0-5.76-3.86-10-9.45-10s-9.45,4.21-9.45,10,3.87,10,9.45,10S106.64,336.64,106.64,330.89Z"/><path d="M145.05,315.85v30.07h-5.63L123,324v21.95h-5.58V315.85H124l15.5,20.92V315.85Z"/><path d="M149.6,330.89c0-8.85,6.28-15.55,15-15.55s15,6.7,15,15.55-6.27,15.55-15,15.55S149.6,339.74,149.6,330.89Zm24.49,0c0-5.76-3.87-10-9.45-10s-9.45,4.21-9.45,10,3.86,10,9.45,10S174.09,336.64,174.09,330.89Z"/><path d="M212.49,315.85v30.07h-5.62L190.46,324v21.95h-5.59V315.85h6.53l15.51,20.92V315.85Z"/></svg>